<svg width="103" height="14" viewBox="0 0 103 14" fill="none" xmlns="http://www.w3.org/2000/svg">
<path d="M0.215609 13H3.29361V5.404L6.13761 13H8.62161L11.4476 5.422V13H14.5256V0.364H10.9076L7.39761 9.112L3.85161 0.364H0.215609V13ZM25.739 0.364H17.999V13H25.739V10.534H21.077V7.762H25.199V5.386H21.077V2.83H25.739V0.364ZM28.3133 2.83H31.6613V13H34.7393V2.83H38.0873V0.364H28.3133V2.83ZM47.5701 4.468C47.5701 5.458 47.0301 6.052 45.8781 6.052H43.9701V2.92H45.8781C47.0301 2.92 47.5701 3.532 47.5701 4.468ZM40.8921 0.364V13H43.9701V8.23H44.7081L47.3361 13H50.8101L47.8941 7.996C49.8381 7.42 50.7021 5.926 50.7021 4.342C50.7021 2.146 49.1541 0.364 46.0581 0.364H40.8921ZM66.3323 6.646C66.3323 2.848 63.4703 0.184 59.8703 0.184C56.2883 0.184 53.3723 2.848 53.3723 6.646C53.3723 10.444 56.2883 13.126 59.8703 13.126C63.4523 13.126 66.3323 10.444 66.3323 6.646ZM56.5223 6.646C56.5223 4.396 57.8183 2.974 59.8703 2.974C61.8863 2.974 63.2003 4.396 63.2003 6.646C63.2003 8.86 61.8863 10.318 59.8703 10.318C57.8183 10.318 56.5223 8.86 56.5223 6.646Z" fill="white"/>
<path d="M77.5307 0.364V8.194L72.3827 0.364H69.3047V13H72.3827V5.206L77.5307 13H80.6087V0.364H77.5307ZM84.0998 13H87.1778V0.364H84.0998V13ZM90.1464 6.664C90.1464 10.444 92.7744 13.09 96.5004 13.09C99.5064 13.09 101.774 11.416 102.494 8.68H99.1104C98.5884 9.76 97.6344 10.3 96.4644 10.3C94.5744 10.3 93.2784 8.896 93.2784 6.664C93.2784 4.432 94.5744 3.028 96.4644 3.028C97.6344 3.028 98.5884 3.568 99.1104 4.648H102.494C101.774 1.912 99.5064 0.219999 96.5004 0.219999C92.7744 0.219999 90.1464 2.884 90.1464 6.664Z" fill="#DB1430"/>
</svg>
