<?xml version="1.0" encoding="iso-8859-1"?>
<!-- Generator: Adobe Illustrator 16.0.0, SVG Export Plug-In . SVG Version: 6.00 Build 0)  -->
<!DOCTYPE svg PUBLIC "-//W3C//DTD SVG 1.1//EN" "http://www.w3.org/Graphics/SVG/1.1/DTD/svg11.dtd">
<svg version="1.1" id="Capa_1" xmlns="http://www.w3.org/2000/svg" xmlns:xlink="http://www.w3.org/1999/xlink" x="0px" y="0px"
	 width="970.477px" height="970.477px" viewBox="0 0 970.477 970.477" style="enable-background:new 0 0 970.477 970.477;"
	 xml:space="preserve">
<g>
	<path d="M842.849,970.477c26.601,0,53.5-8.8,75.7-27c51.4-41.9,59.101-117.4,17.2-168.8l-234.6-288l237-290.9
		c41.899-51.399,34.1-127-17.2-168.8c-51.4-41.899-127-34.1-168.8,17.2l-298.8,366.7c-36,44.1-36,107.399,0,151.6l296.4,363.9
		C773.45,955.377,808.049,970.477,842.849,970.477z"/>
	<path d="M328.85,926.276c23.7,29.101,58.301,44.2,93.101,44.2c26.6,0,53.5-8.8,75.7-27c51.399-41.9,59.1-117.4,17.199-168.8
		l-234.599-288l237-290.9c41.9-51.399,34.1-127-17.2-168.8c-51.399-41.899-127-34.1-168.799,17.2l-298.9,366.7
		c-36,44.1-36,107.5,0,151.6L328.85,926.276z"/>
</g>
<g>
</g>
<g>
</g>
<g>
</g>
<g>
</g>
<g>
</g>
<g>
</g>
<g>
</g>
<g>
</g>
<g>
</g>
<g>
</g>
<g>
</g>
<g>
</g>
<g>
</g>
<g>
</g>
<g>
</g>
</svg>
