<?xml version="1.0" encoding="iso-8859-1"?>
<!-- Generator: Adobe Illustrator 16.0.0, SVG Export Plug-In . SVG Version: 6.00 Build 0)  -->
<!DOCTYPE svg PUBLIC "-//W3C//DTD SVG 1.1//EN" "http://www.w3.org/Graphics/SVG/1.1/DTD/svg11.dtd">
<svg version="1.1" id="Capa_1" xmlns="http://www.w3.org/2000/svg" xmlns:xlink="http://www.w3.org/1999/xlink" x="0px" y="0px"
	 width="976.201px" height="976.201px" viewBox="0 0 976.201 976.201" style="enable-background:new 0 0 976.201 976.201;"
	 xml:space="preserve">
<g>
	<path d="M220.3,806.45c40.399,21.4,83.399,37.9,127.7,49c45.6,11.4,92.699,17.301,140.1,17.301s94.5-5.801,140.1-17.301
		c44.301-11.1,87.2-27.6,127.7-49c79.2-41.9,148.601-102.801,200.5-176.1c26.4-37.201,26.4-87.201,0-124.5
		C904.5,432.55,835.1,371.65,755.9,329.75c-40.399-21.4-83.399-37.9-127.7-49c-45.6-11.4-92.699-17.3-140.1-17.3
		s-94.5,5.8-140.1,17.3c-44.301,11.1-87.2,27.6-127.7,49C141.1,371.65,71.7,432.55,19.8,505.851c-26.4,37.199-26.4,87.199,0,124.5
		C71.7,703.649,141.1,764.55,220.3,806.45z M488.1,492.95c41.5,0,75.2,33.699,75.2,75.199s-33.7,75.201-75.2,75.201
		s-75.2-33.701-75.2-75.201S446.6,492.95,488.1,492.95z M704.4,427.05c63.601,33.6,119.3,82.4,161.2,141.099
		c-41.9,58.701-97.6,107.5-161.2,141.102c-13.6,7.199-27.5,13.699-41.8,19.398c38.9-42.199,62.6-98.6,62.6-160.6
		S701.5,449.75,662.6,407.45C676.9,413.35,690.9,419.85,704.4,427.05z M271.8,427.05c13.6-7.2,27.5-13.7,41.8-19.4
		C274.7,449.85,251,506.251,251,568.251s23.7,118.299,62.601,160.6c-14.2-5.801-28.2-12.301-41.8-19.4
		c-63.601-33.6-119.301-82.4-161.2-141.1C152.4,509.45,208.1,460.65,271.8,427.05z"/>
	<path d="M42.9,301.05c10.4,16.6,28.3,25.8,46.6,25.8c10,0,20.101-2.7,29.2-8.4c109.3-68.6,237-104.9,369.4-104.9
		s260.1,36.3,369.4,104.9c25.699,16.2,59.699,8.4,75.8-17.3c16.2-25.7,8.399-59.7-17.3-75.8C789.2,145.55,641.2,103.45,488.1,103.45
		S187,145.55,60.2,225.25C34.5,241.35,26.7,275.35,42.9,301.05z"/>
</g>
<g>
</g>
<g>
</g>
<g>
</g>
<g>
</g>
<g>
</g>
<g>
</g>
<g>
</g>
<g>
</g>
<g>
</g>
<g>
</g>
<g>
</g>
<g>
</g>
<g>
</g>
<g>
</g>
<g>
</g>
</svg>
