<svg width="159" height="115" viewBox="0 0 159 115" fill="none" xmlns="http://www.w3.org/2000/svg">
<path d="M2.11631 108H7.04431L7.66031 98.984C7.77231 97.472 7.66031 95.624 7.66031 95.624H7.71631C7.71631 95.624 8.38831 97.724 8.83631 98.984L10.9363 104.78H15.1363L17.2363 98.984C17.6843 97.724 18.3563 95.624 18.3563 95.624H18.4123C18.4123 95.624 18.3003 97.472 18.4123 98.984L19.0283 108H23.9283L22.3043 87.98H16.9843L14.0723 96.436C13.6243 97.724 13.0643 99.74 13.0643 99.74H13.0083C13.0083 99.74 12.4483 97.724 12.0003 96.436L9.08831 87.98H3.76831L2.11631 108ZM28.8653 108H41.8013V103.8H33.7653V100.02H39.8693V95.82H33.7653V92.18H41.4093V87.98H28.8653V108ZM50.0022 108H54.9022V92.18H60.9782V87.98H43.9262V92.18H50.0022V108ZM64.2875 108H69.1875V101.252H71.4835L75.0395 108H80.4995L76.6075 101C76.1315 100.16 75.8515 99.796 75.8515 99.796V99.74C77.8395 98.732 78.8475 96.408 78.8475 94.28C78.8475 91.368 77.4195 89.324 75.1515 88.456C74.2835 88.12 73.3035 87.98 71.2595 87.98H64.2875V108ZM69.1875 97.052V92.18H70.8395C73.3035 92.18 73.8635 93.076 73.8635 94.588C73.8635 96.184 72.8835 97.052 71.3155 97.052H69.1875ZM82.7867 97.864C82.7867 103.744 87.2107 108.336 93.2587 108.336C99.3067 108.336 103.731 103.744 103.731 97.864C103.731 92.124 99.3067 87.644 93.2587 87.644C87.2107 87.644 82.7867 92.124 82.7867 97.864ZM87.8547 97.864C87.8547 94.588 90.2627 92.124 93.2587 92.124C96.2547 92.124 98.6627 94.588 98.6627 97.864C98.6627 101.28 96.2547 103.856 93.2587 103.856C90.2627 103.856 87.8547 101.28 87.8547 97.864ZM107.913 108H112.813V98.676C112.813 97.416 112.589 95.26 112.589 95.26H112.645C112.645 95.26 113.541 97.36 114.325 98.676L119.897 108H124.825V87.98H119.925V97.332C119.925 98.592 120.149 100.748 120.149 100.748H120.093C120.093 100.748 119.197 98.648 118.413 97.332L112.869 87.98H107.913V108ZM130.382 108H135.282V87.98H130.382V108ZM139.447 97.948C139.447 103.884 143.675 108.336 149.947 108.336C155.183 108.336 158.011 104.976 158.011 104.976L155.491 101.392C155.491 101.392 153.195 103.856 150.171 103.856C146.475 103.856 144.515 100.804 144.515 97.836C144.515 94.952 146.335 92.124 150.171 92.124C152.943 92.124 155.183 94.168 155.183 94.168L157.451 90.472C157.451 90.472 154.903 87.644 149.947 87.644C143.927 87.644 139.447 92.124 139.447 97.948Z" fill="white"/>
<path d="M108.784 5.55374L126.903 61.9711C127.94 65.1984 125.532 68.5 122.143 68.5H110.603C107.118 68.5 104.033 66.2432 102.979 62.921L85.068 6.51315C84.0443 3.28901 86.4508 0 89.8336 0H101.167C104.643 0 107.721 2.2444 108.784 5.55374Z" fill="#FF008A"/>
<path d="M86.5896 46.7323L73.2332 3.95024C72.4996 1.60027 70.3236 0 67.8617 0C64.4371 0 61.6133 2.68366 61.439 6.10381L59.8202 37.872C59.7737 38.7839 59.8837 39.6971 60.1454 40.5719L67.4329 64.933C68.0662 67.0498 70.0137 68.5 72.2232 68.5H78.8462C81.0225 68.5 82.9488 67.0923 83.6099 65.0189L86.5623 55.7591C87.498 52.8243 87.5076 49.6727 86.5896 46.7323Z" fill="white"/>
<path d="M86.5896 46.7323L73.2332 3.95024C72.4996 1.60027 70.3236 0 67.8617 0C64.4371 0 61.6133 2.68366 61.439 6.10381L59.8202 37.872C59.7737 38.7839 59.8837 39.6971 60.1454 40.5719L67.4329 64.933C68.0662 67.0498 70.0137 68.5 72.2232 68.5H78.8462C81.0225 68.5 82.9488 67.0923 83.6099 65.0189L86.5623 55.7591C87.498 52.8243 87.5076 49.6727 86.5896 46.7323Z" fill="url(#paint0_linear)"/>
<path d="M57.9527 0H68.7492C72.1076 0 74.5111 3.24502 73.5321 6.45756L56.1998 63.3321C55.1737 66.6992 52.0673 69 48.5473 69H37.7508C34.3924 69 31.9889 65.755 32.9679 62.5424L50.3002 5.66792C51.3263 2.3008 54.4327 0 57.9527 0Z" fill="#FF008A"/>
<defs>
<linearGradient id="paint0_linear" x1="63.5" y1="38" x2="78" y2="42.5" gradientUnits="userSpaceOnUse">
<stop stop-color="#18175A" stop-opacity="0.42"/>
<stop offset="0.911458" stop-color="#65719B" stop-opacity="0"/>
</linearGradient>
</defs>
</svg>
