<svg width="107" height="74" viewBox="0 0 107 74" fill="none" xmlns="http://www.w3.org/2000/svg">
      <path d="M46.5 28.5C46.5 36.3 45.3 43.1 42.9 48.9C40.5 54.5 37.4 59.2 33.6 63C29.8 66.6 25.4 69.3 20.4 71.1C15.6 72.7 10.8 73.5 6 73.5V63C11.2 63 16 61.3 20.4 57.9C25 54.3 27.7 49.5 28.5 43.5C27.9 43.9 27.2 44.2 26.4 44.4C24.8 44.8 23 45 21 45C15 45 10 42.8 6 38.4C2 33.8 2.23517e-07 28.5 2.23517e-07 22.5C2.23517e-07 16.5 2 11.3 6 6.89999C10.2 2.29999 15.7 -1.14441e-05 22.5 -1.14441e-05C30.1 -1.14441e-05 36 2.89999 40.2 8.69998C44.4 14.3 46.5 20.9 46.5 28.5ZM106.5 28.5C106.5 36.3 105.3 43.1 102.9 48.9C100.5 54.5 97.4 59.2 93.6 63C89.8 66.6 85.4 69.3 80.4 71.1C75.6 72.7 70.8 73.5 66 73.5V63C71.2 63 76 61.3 80.4 57.9C85 54.3 87.7 49.5 88.5 43.5C87.9 43.9 87.2 44.2 86.4 44.4C84.8 44.8 83 45 81 45C75 45 70 42.8 66 38.4C62 33.8 60 28.5 60 22.5C60 16.5 62 11.3 66 6.89999C70.2 2.29999 75.7 -1.14441e-05 82.5 -1.14441e-05C90.1 -1.14441e-05 96 2.89999 100.2 8.69998C104.4 14.3 106.5 20.9 106.5 28.5Z" fill="#F6F7FA"></path>
    </svg>