<?xml version="1.0" encoding="iso-8859-1"?>
<!-- Generator: Adobe Illustrator 19.0.0, SVG Export Plug-In . SVG Version: 6.00 Build 0)  -->
<svg version="1.1" id="Capa_1" xmlns="http://www.w3.org/2000/svg" xmlns:xlink="http://www.w3.org/1999/xlink" x="0px" y="0px"
	 viewBox="0 0 477.867 477.867" style="enable-background:new 0 0 477.867 477.867;" xml:space="preserve">
<g>
	<g>
		<path d="M119.467,0C110.041,0,102.4,7.641,102.4,17.067V51.2h34.133V17.067C136.533,7.641,128.892,0,119.467,0z"/>
	</g>
</g>
<g>
	<g>
		<path d="M358.4,0c-9.426,0-17.067,7.641-17.067,17.067V51.2h34.133V17.067C375.467,7.641,367.826,0,358.4,0z"/>
	</g>
</g>
<g>
	<g>
		<path d="M426.667,51.2h-51.2v68.267c0,9.426-7.641,17.067-17.067,17.067s-17.067-7.641-17.067-17.067V51.2h-204.8v68.267
			c0,9.426-7.641,17.067-17.067,17.067s-17.067-7.641-17.067-17.067V51.2H51.2C22.923,51.2,0,74.123,0,102.4v324.267
			c0,28.277,22.923,51.2,51.2,51.2h375.467c28.277,0,51.2-22.923,51.2-51.2V102.4C477.867,74.123,454.944,51.2,426.667,51.2z
			 M443.733,426.667c0,9.426-7.641,17.067-17.067,17.067H51.2c-9.426,0-17.067-7.641-17.067-17.067V204.8h409.6V426.667z"/>
	</g>
</g>
<g>
	<g>
		<path d="M136.533,238.933H102.4c-9.426,0-17.067,7.641-17.067,17.067s7.641,17.067,17.067,17.067h34.133
			c9.426,0,17.067-7.641,17.067-17.067S145.959,238.933,136.533,238.933z"/>
	</g>
</g>
<g>
	<g>
		<path d="M256,238.933h-34.133c-9.426,0-17.067,7.641-17.067,17.067s7.641,17.067,17.067,17.067H256
			c9.426,0,17.067-7.641,17.067-17.067S265.426,238.933,256,238.933z"/>
	</g>
</g>
<g>
	<g>
		<path d="M375.467,238.933h-34.133c-9.426,0-17.067,7.641-17.067,17.067s7.641,17.067,17.067,17.067h34.133
			c9.426,0,17.067-7.641,17.067-17.067S384.892,238.933,375.467,238.933z"/>
	</g>
</g>
<g>
	<g>
		<path d="M136.533,307.2H102.4c-9.426,0-17.067,7.641-17.067,17.067c0,9.426,7.641,17.067,17.067,17.067h34.133
			c9.426,0,17.067-7.641,17.067-17.067C153.6,314.841,145.959,307.2,136.533,307.2z"/>
	</g>
</g>
<g>
	<g>
		<path d="M256,307.2h-34.133c-9.426,0-17.067,7.641-17.067,17.067c0,9.426,7.641,17.067,17.067,17.067H256
			c9.426,0,17.067-7.641,17.067-17.067C273.067,314.841,265.426,307.2,256,307.2z"/>
	</g>
</g>
<g>
	<g>
		<path d="M375.467,307.2h-34.133c-9.426,0-17.067,7.641-17.067,17.067c0,9.426,7.641,17.067,17.067,17.067h34.133
			c9.426,0,17.067-7.641,17.067-17.067C392.533,314.841,384.892,307.2,375.467,307.2z"/>
	</g>
</g>
<g>
	<g>
		<path d="M136.533,375.467H102.4c-9.426,0-17.067,7.641-17.067,17.067S92.974,409.6,102.4,409.6h34.133
			c9.426,0,17.067-7.641,17.067-17.067S145.959,375.467,136.533,375.467z"/>
	</g>
</g>
<g>
	<g>
		<path d="M256,375.467h-34.133c-9.426,0-17.067,7.641-17.067,17.067s7.641,17.067,17.067,17.067H256
			c9.426,0,17.067-7.641,17.067-17.067S265.426,375.467,256,375.467z"/>
	</g>
</g>
<g>
	<g>
		<path d="M375.467,375.467h-34.133c-9.426,0-17.067,7.641-17.067,17.067s7.641,17.067,17.067,17.067h34.133
			c9.426,0,17.067-7.641,17.067-17.067S384.892,375.467,375.467,375.467z"/>
	</g>
</g>
<g>
</g>
<g>
</g>
<g>
</g>
<g>
</g>
<g>
</g>
<g>
</g>
<g>
</g>
<g>
</g>
<g>
</g>
<g>
</g>
<g>
</g>
<g>
</g>
<g>
</g>
<g>
</g>
<g>
</g>
</svg>
