<?xml version="1.0" encoding="iso-8859-1"?>
<!-- Generator: Adobe Illustrator 16.0.0, SVG Export Plug-In . SVG Version: 6.00 Build 0)  -->
<!DOCTYPE svg PUBLIC "-//W3C//DTD SVG 1.1//EN" "http://www.w3.org/Graphics/SVG/1.1/DTD/svg11.dtd">
<svg version="1.1" id="Capa_1" xmlns="http://www.w3.org/2000/svg" xmlns:xlink="http://www.w3.org/1999/xlink" x="0px" y="0px"
	 width="454.52px" height="454.52px" viewBox="0 0 454.52 454.52" style="enable-background:new 0 0 454.52 454.52;"
	 xml:space="preserve">
<g>
	<path d="M378.135,227.256L206.224,55.354c-12.354-12.359-12.354-32.394,0-44.748c12.354-12.359,32.388-12.359,44.747,0
		L445.258,204.89c6.177,6.18,9.262,14.271,9.262,22.366c0,8.098-3.091,16.195-9.262,22.372L250.971,443.91
		c-12.359,12.365-32.394,12.365-44.747,0c-12.354-12.354-12.354-32.391,0-44.744L378.135,227.256z M9.265,399.166
		c-12.354,12.354-12.354,32.391,0,44.744c12.354,12.365,32.382,12.365,44.748,0l194.287-194.281
		c6.177-6.177,9.257-14.274,9.257-22.372c0-8.095-3.086-16.192-9.257-22.366L54.013,10.606c-12.365-12.359-32.394-12.359-44.748,0
		c-12.354,12.354-12.354,32.388,0,44.748L181.18,227.256L9.265,399.166z"/>
</g>
<g>
</g>
<g>
</g>
<g>
</g>
<g>
</g>
<g>
</g>
<g>
</g>
<g>
</g>
<g>
</g>
<g>
</g>
<g>
</g>
<g>
</g>
<g>
</g>
<g>
</g>
<g>
</g>
<g>
</g>
</svg>
