<svg width="341" height="184" viewBox="0 0 341 184" fill="none" xmlns="http://www.w3.org/2000/svg">
<g clip-path="url(#clip0)">
<path d="M255.875 96.7178C255.875 90.8731 251.135 86.1349 245.289 86.1349C239.443 86.1349 234.703 90.8731 234.703 96.7178C234.703 102.562 239.443 107.301 245.289 107.301C248.797 107.301 251.641 110.144 251.641 113.65C251.641 117.157 248.797 120 245.289 120C232.427 120 222 109.576 222 96.7178C222 83.8592 232.427 73.4355 245.289 73.4355C258.151 73.4355 268.578 83.8592 268.578 96.7178C268.578 100.224 265.734 103.067 262.227 103.067C258.719 103.067 255.875 100.224 255.875 96.7178Z" fill="#E53855"/>
<path fill-rule="evenodd" clip-rule="evenodd" d="M307.585 191.834C301.739 191.834 296.999 196.573 296.999 202.417C296.999 208.262 301.739 213 307.585 213C313.431 213 318.171 208.262 318.171 202.417C318.171 196.573 313.431 191.834 307.585 191.834ZM239.585 42.8344C233.739 42.8344 228.999 47.5725 228.999 53.4172C228.999 59.2623 233.739 64 239.585 64C245.431 64 250.171 59.2623 250.171 53.4172C250.171 47.5725 245.431 42.8344 239.585 42.8344Z" fill="#FFC735"/>
<path d="M285.989 31.2234C280.143 31.2234 275.403 26.4853 275.403 20.6405C275.403 14.7958 280.143 10.0577 285.989 10.0577C291.836 10.0577 296.575 14.7958 296.575 20.6405C296.575 24.1473 299.419 26.9903 302.927 26.9903C306.435 26.9903 309.278 24.1473 309.278 20.6405C309.278 7.78194 298.852 -2.64176 285.989 -2.64176C273.127 -2.64176 262.7 7.78194 262.7 20.6405C262.7 33.4992 273.127 43.9229 285.989 43.9229C289.497 43.9229 292.341 41.0799 292.341 37.5731C292.341 34.0664 289.497 31.2234 285.989 31.2234Z" fill="#44AB96"/>
<path fill-rule="evenodd" clip-rule="evenodd" d="M231.452 -47.5225C244.306 -47.5225 254.726 -37.0973 254.726 -24.2369V18.1006C254.726 30.9611 244.306 41.3862 231.452 41.3862C218.597 41.3862 208.177 30.9611 208.177 18.1006V4.55262H194.847C181.994 4.55262 171.573 -5.87255 171.573 -18.733V-61.0705C171.573 -66.9173 166.837 -71.6548 160.994 -71.6548H141.528C135.686 -71.6548 130.949 -66.9173 130.949 -61.0705C130.949 -57.5649 128.107 -54.7198 124.601 -54.7198C121.096 -54.7198 118.254 -57.5649 118.254 -61.0705C118.254 -73.9326 128.674 -84.3561 141.528 -84.3561H160.994C167.663 -84.3561 173.678 -81.5491 177.921 -77.0529C182.164 -81.5491 188.178 -84.3561 194.847 -84.3561H213.89C217.396 -84.3561 220.238 -81.511 220.238 -78.0055C220.238 -74.4999 217.396 -71.6548 213.89 -71.6548H194.847C189.005 -71.6548 184.268 -66.9173 184.268 -61.0705V-18.733C184.268 -12.8875 189.005 -8.14862 194.847 -8.14862H208.177V-24.2369C208.177 -37.0973 218.597 -47.5225 231.452 -47.5225ZM220.872 18.1007C220.872 23.9462 225.609 28.685 231.452 28.685C237.294 28.685 242.031 23.9462 242.031 18.1007V-24.2367C242.031 -30.0823 237.294 -34.8211 231.452 -34.8211C225.609 -34.8211 220.872 -30.0823 220.872 -24.2367V18.1007Z" fill="#8950FC"/>
<path fill-rule="evenodd" clip-rule="evenodd" d="M290.234 181.435C290.234 162.735 275.07 147.575 256.364 147.575C252.857 147.575 250.014 144.733 250.014 141.226C250.014 137.72 252.857 134.878 256.364 134.878C282.084 134.878 302.935 155.722 302.935 181.435C302.935 184.941 300.092 187.784 296.585 187.784C293.077 187.784 290.234 184.941 290.234 181.435Z" fill="#44AB96"/>
<path fill-rule="evenodd" clip-rule="evenodd" d="M303.297 43.1982C306.801 43.1982 309.641 40.359 309.641 36.8568C309.641 33.3546 306.801 30.5153 303.297 30.5153C299.794 30.5153 296.954 33.3546 296.954 36.8568C296.954 40.359 299.794 43.1982 303.297 43.1982Z" fill="#FD6234"/>
<path fill-rule="evenodd" clip-rule="evenodd" d="M303.297 60.0483C306.801 60.0483 309.641 57.209 309.641 53.7069C309.641 50.2047 306.801 47.3654 303.297 47.3654C299.794 47.3654 296.954 50.2047 296.954 53.7069C296.954 57.209 299.794 60.0483 303.297 60.0483Z" fill="#FD6234"/>
<path fill-rule="evenodd" clip-rule="evenodd" d="M312.722 171.387C312.722 158.528 323.135 148.104 335.981 148.104H378.269C391.115 148.104 401.528 158.528 401.528 171.387C401.528 184.245 391.115 194.669 378.269 194.669H335.981C323.135 194.669 312.722 184.245 312.722 171.387ZM335.981 160.804C330.142 160.804 325.408 165.542 325.408 171.387C325.408 177.231 330.142 181.97 335.981 181.97H378.269C384.108 181.97 388.841 177.231 388.841 171.387C388.841 165.542 384.108 160.804 378.269 160.804H335.981Z" fill="#44AB96"/>
<path fill-rule="evenodd" clip-rule="evenodd" d="M401.166 119.296C401.166 115.794 398.322 112.954 394.814 112.954C388.966 112.954 384.226 108.222 384.226 102.385V60.1087C384.226 54.2715 388.966 49.5395 394.814 49.5395C398.322 49.5395 401.166 46.7003 401.166 43.1981C401.166 39.6959 398.322 36.8566 394.814 36.8566C388.139 36.8566 382.12 39.6591 377.873 44.1497C373.626 39.6591 367.608 36.8566 360.933 36.8566H341.452C328.588 36.8566 318.159 47.2668 318.159 60.1087C318.159 63.6108 321.003 66.4501 324.512 66.4501C328.02 66.4501 330.864 63.6108 330.864 60.1087C330.864 54.2715 335.605 49.5395 341.452 49.5395H360.933C366.781 49.5395 371.521 54.2715 371.521 60.1087V102.385C371.521 102.385 371.521 102.385 371.521 102.385C371.521 115.227 381.949 125.637 394.814 125.637C398.322 125.637 401.166 122.798 401.166 119.296Z" fill="#44AB96"/>
<path fill-rule="evenodd" clip-rule="evenodd" d="M342.717 90.8663C336.87 90.8663 332.131 95.6045 332.131 101.449C332.131 107.294 336.87 112.032 342.717 112.032C348.563 112.032 353.303 107.294 353.303 101.449C353.303 97.9425 356.146 95.0995 359.654 95.0995C363.162 95.0995 366.006 97.9425 366.006 101.449C366.006 114.308 355.579 124.731 342.717 124.731C329.854 124.731 319.428 114.308 319.428 101.449C319.428 88.5906 329.854 78.1669 342.717 78.1669C346.225 78.1669 349.068 81.0099 349.068 84.5166C349.068 88.0234 346.225 90.8663 342.717 90.8663Z" fill="#E53855"/>
<path fill-rule="evenodd" clip-rule="evenodd" d="M287.711 59.6973C287.711 67.7658 294.408 74.5205 302.935 74.5205C311.462 74.5205 318.159 67.7658 318.159 59.6973C318.159 56.1888 320.999 53.3445 324.502 53.3445C328.006 53.3445 330.846 56.1888 330.846 59.6973C330.846 75.019 318.23 87.2261 302.935 87.2261C287.64 87.2261 275.024 75.019 275.024 59.6973C275.024 56.1888 277.865 53.3445 281.368 53.3445C284.871 53.3445 287.711 56.1888 287.711 59.6973Z" fill="#FFB017"/>
<path d="M312.721 170.028C312.721 143.41 291.137 121.832 264.512 121.832C261.009 121.832 258.169 118.993 258.169 115.491C258.169 111.989 261.009 109.15 264.512 109.15C298.144 109.15 325.408 136.406 325.408 170.028C325.408 173.53 322.568 176.369 319.065 176.369C315.562 176.369 312.721 173.53 312.721 170.028Z" fill="#8950FC"/>
<path d="M99.7932 -16.9427C99.7932 5.75122 118.196 24.148 140.896 24.148C144.406 24.148 147.252 26.993 147.252 30.5022C147.252 34.0114 144.406 36.8564 140.896 36.8564C111.175 36.8564 87.0811 12.7697 87.0811 -16.9427C87.0811 -20.4519 89.9268 -23.2969 93.4371 -23.2969C96.9475 -23.2969 99.7932 -20.4519 99.7932 -16.9427Z" fill="#E53855"/>
<path fill-rule="evenodd" clip-rule="evenodd" d="M298.343 96.317C301.847 96.317 304.687 99.1563 304.687 102.659C304.687 106.161 301.847 109 298.343 109C294.84 109 292 106.161 292 102.659C292 99.1563 294.84 96.317 298.343 96.317Z" fill="#FD6234"/>
<path fill-rule="evenodd" clip-rule="evenodd" d="M324.503 53.3445C328.006 53.3445 330.846 56.1838 330.846 59.6859C330.846 63.1881 328.006 66.0273 324.503 66.0273C320.999 66.0273 318.159 63.1881 318.159 59.6859C318.159 56.1838 320.999 53.3445 324.503 53.3445Z" fill="#FD6234"/>
<path fill-rule="evenodd" clip-rule="evenodd" d="M319.065 164.954C322.568 164.954 325.408 167.794 325.408 171.296C325.408 174.798 322.568 177.637 319.065 177.637C315.562 177.637 312.722 174.798 312.722 171.296C312.722 167.794 315.562 164.954 319.065 164.954Z" fill="#FD6234"/>
<path fill-rule="evenodd" clip-rule="evenodd" d="M328.309 18.1947C328.309 -4.21992 310.133 -22.3908 287.711 -22.3908C284.208 -22.3908 281.368 -25.2301 281.368 -28.7323C281.368 -32.2344 284.208 -35.0737 287.711 -35.0737C317.139 -35.0737 340.995 -11.2247 340.995 18.1947C340.995 21.6968 338.155 24.5361 334.652 24.5361C331.149 24.5361 328.309 21.6968 328.309 18.1947Z" fill="#B4D51E"/>
<path fill-rule="evenodd" clip-rule="evenodd" d="M140.817 -27.4476C134.971 -27.4476 130.231 -22.7094 130.231 -16.8648C130.231 -11.0201 134.971 -6.28192 140.817 -6.28192C146.664 -6.28192 151.403 -11.0201 151.403 -16.8648C151.403 -20.3715 154.247 -23.2145 157.755 -23.2145C161.263 -23.2145 164.106 -20.3715 164.106 -16.8648C164.106 -4.00619 153.68 6.41748 140.817 6.41748C127.955 6.41748 117.528 -4.00619 117.528 -16.8648C117.528 -29.7233 127.955 -40.147 140.817 -40.147C144.325 -40.147 147.169 -37.3023 147.169 -33.7973C147.169 -30.2906 144.325 -27.4476 140.817 -27.4476Z" fill="#463C74"/>
<path fill-rule="evenodd" clip-rule="evenodd" d="M220.007 72.6585C220.007 69.1563 217.163 66.3171 213.654 66.3171C207.807 66.3171 203.067 61.5851 203.067 55.7479V13.4715C203.067 7.63434 207.807 2.90234 213.654 2.90234C217.163 2.90234 220.007 0.0630493 220.007 -3.43913C220.007 -6.94131 217.163 -9.78061 213.654 -9.78061C206.98 -9.78061 200.961 -6.9781 196.714 -2.4875C192.467 -6.9781 186.448 -9.78061 179.774 -9.78061H160.293C147.428 -9.78061 137 0.629555 137 13.4715C137 16.9736 139.844 19.8129 143.353 19.8129C146.861 19.8129 149.705 16.9736 149.705 13.4715C149.705 7.63434 154.445 2.90234 160.293 2.90234H179.774C185.621 2.90234 190.362 7.63434 190.362 13.4715V55.7475C190.362 55.7479 190.362 55.7475 190.362 55.7475C190.362 68.5894 200.79 79 213.654 79C217.163 79 220.007 76.1607 220.007 72.6585Z" fill="#44AB96"/>
<path fill-rule="evenodd" clip-rule="evenodd" d="M168.586 15.9999C162.74 15.9999 158 20.738 158 26.5827C158 32.4278 162.74 37.1655 168.586 37.1655C174.432 37.1655 179.172 32.4278 179.172 26.5827C179.172 20.738 174.432 15.9999 168.586 15.9999Z" fill="#E5E0D5"/>
</g>
<defs>
<clipPath id="clip0">
<rect width="384" height="184" fill="white"/>
</clipPath>
</defs>
</svg>
