<svg width="145" height="30" viewBox="0 0 145 30" fill="none" xmlns="http://www.w3.org/2000/svg">
<path d="M49.8672 22.4999H52.7697L53.4447 13.5674C53.5122 12.5099 53.4672 11.0699 53.4672 11.0699H53.5122C53.5122 11.0699 54.0069 12.6449 54.3894 13.5674L56.9544 19.7549H59.4969L62.0844 13.5674C62.4669 12.6449 62.9394 11.0924 62.9394 11.0924H62.9844C62.9844 11.0924 62.9394 12.5099 63.0069 13.5674L63.6819 22.4999H66.5619L65.2794 6.5249H62.1744L59.0469 14.4224C58.6869 15.3674 58.2594 16.7624 58.2594 16.7624H58.2144C58.2144 16.7624 57.7644 15.3674 57.4044 14.4224L54.2769 6.5249H51.1722L49.8672 22.4999ZM68.8558 16.7624C68.8558 20.0249 71.2183 22.7699 75.0208 22.7699C77.8783 22.7699 79.6333 21.1274 79.6333 21.1274L78.5308 19.0799C78.5308 19.0799 77.0683 20.3399 75.2233 20.3399C73.5133 20.3399 71.9608 19.3049 71.7808 17.3024H79.7008C79.7008 17.3024 79.7683 16.5374 79.7683 16.1999C79.7683 13.1624 77.9908 10.7549 74.6833 10.7549C71.2633 10.7549 68.8558 13.2299 68.8558 16.7624ZM71.8708 15.3449C72.1408 13.8599 73.1533 12.9599 74.6158 12.9599C75.8758 12.9599 76.8433 13.7924 76.8883 15.3449H71.8708ZM82.6189 18.2924C82.6189 22.1399 85.7914 22.6124 87.3889 22.6124C87.9289 22.6124 88.2664 22.5449 88.2664 22.5449V20.0474C88.2664 20.0474 88.0639 20.0924 87.7489 20.0924C86.9614 20.0924 85.4764 19.8224 85.4764 17.9324V13.4774H88.0864V11.2049H85.4764V7.8974H82.6864V11.2049H81.1339V13.4774H82.6189V18.2924ZM90.6053 22.4999H93.4628V17.9549C93.4628 17.2799 93.5303 16.6499 93.7103 16.0874C94.2503 14.3774 95.6228 13.6799 96.8378 13.6799C97.2203 13.6799 97.5128 13.7249 97.5128 13.7249V10.9124C97.5128 10.9124 97.2653 10.8674 96.9953 10.8674C95.2403 10.8674 93.8678 12.1724 93.3503 13.8149H93.3053C93.3053 13.8149 93.3503 13.4324 93.3503 13.0049V11.0249H90.6053V22.4999ZM98.5837 16.7624C98.5837 20.2949 101.396 22.7699 104.906 22.7699C108.394 22.7699 111.206 20.2949 111.206 16.7624C111.206 13.2524 108.394 10.7549 104.884 10.7549C101.396 10.7549 98.5837 13.2524 98.5837 16.7624ZM101.486 16.7624C101.486 14.6474 103.039 13.1849 104.906 13.1849C106.751 13.1849 108.304 14.6474 108.304 16.7624C108.304 18.8999 106.751 20.3399 104.906 20.3399C103.039 20.3399 101.486 18.8999 101.486 16.7624ZM113.501 22.4999H116.359V17.2349C116.359 16.6949 116.404 16.1774 116.561 15.7049C116.989 14.3324 118.114 13.3649 119.644 13.3649C121.106 13.3649 121.466 14.3099 121.466 15.7049V22.4999H124.301V15.1199C124.301 12.0824 122.861 10.7549 120.319 10.7549C118.001 10.7549 116.741 12.1724 116.246 13.1399H116.201C116.201 13.1399 116.246 12.7799 116.246 12.3524V11.0249H113.501V22.4999ZM127.3 9.0674H130.135V6.5249H127.3V9.0674ZM127.3 22.4999H130.158V11.0249H127.3V22.4999ZM132.466 16.7624C132.466 20.0924 134.896 22.7699 138.699 22.7699C141.781 22.7699 143.424 20.9024 143.424 20.9024L142.321 18.8774C142.321 18.8774 140.881 20.3399 138.946 20.3399C136.764 20.3399 135.369 18.6749 135.369 16.7399C135.369 14.7824 136.741 13.1849 138.856 13.1849C140.656 13.1849 141.849 14.4224 141.849 14.4224L143.108 12.4649C143.108 12.4649 141.691 10.7549 138.699 10.7549C134.896 10.7549 132.466 13.4999 132.466 16.7624Z" fill="#ffffff"/>
<path d="M32.7393 1.4876L40.8867 26.8556C41.3309 28.2387 40.2992 29.6537 38.8465 29.6537H32.8554C31.9218 29.6537 31.0956 29.0492 30.813 28.1593L22.7583 2.79135C22.3195 1.40958 23.3509 0 24.8006 0H30.6991C31.6301 0 32.4546 0.601173 32.7393 1.4876Z" fill="#50CD89"/>
<g filter="url(#filter0_i)">
<path d="M24.9367 20.25L19.1916 1.84778C18.8484 0.748548 17.8305 0 16.679 0C15.2773 0 14.1215 1.09841 14.0502 2.49826L13.3493 16.2531C13.3244 16.7417 13.3834 17.2309 13.5236 17.6995L16.6423 28.1249C16.9137 29.0322 17.7483 29.6537 18.6952 29.6537H21.5943C22.5269 29.6537 23.3525 29.0504 23.6359 28.1618L24.925 24.1186C25.326 22.8609 25.3301 21.5102 24.9367 20.25Z" fill="#F4F4F4"/>
<path d="M24.9367 20.25L19.1916 1.84778C18.8484 0.748548 17.8305 0 16.679 0C15.2773 0 14.1215 1.09841 14.0502 2.49826L13.3493 16.2531C13.3244 16.7417 13.3834 17.2309 13.5236 17.6995L16.6423 28.1249C16.9137 29.0322 17.7483 29.6537 18.6952 29.6537H21.5943C22.5269 29.6537 23.3525 29.0504 23.6359 28.1618L24.925 24.1186C25.326 22.8609 25.3301 21.5102 24.9367 20.25Z" fill="url(#paint0_linear)"/>
</g>
<path d="M10.8839 0H16.7845C18.2295 0 19.2602 1.40083 18.8304 2.78033L10.8584 28.3647C10.5794 29.2602 9.7505 29.8701 8.81257 29.8701H2.91192C1.467 29.8701 0.436238 28.4693 0.866082 27.0898L8.83801 1.50538C9.11707 0.609943 9.94598 0 10.8839 0Z" fill="#50CD89"/>
<defs>
<filter id="filter0_i" x="9.34375" y="0" width="15.885" height="32.6537" filterUnits="userSpaceOnUse" color-interpolation-filters="sRGB">
<feFlood flood-opacity="0" result="BackgroundImageFix"/>
<feBlend mode="normal" in="SourceGraphic" in2="BackgroundImageFix" result="shape"/>
<feColorMatrix in="SourceAlpha" type="matrix" values="0 0 0 0 0 0 0 0 0 0 0 0 0 0 0 0 0 0 127 0" result="hardAlpha"/>
<feOffset dx="-4" dy="3"/>
<feGaussianBlur stdDeviation="2"/>
<feComposite in2="hardAlpha" operator="arithmetic" k2="-1" k3="1"/>
<feColorMatrix type="matrix" values="0 0 0 0 0.904167 0 0 0 0 0.892865 0 0 0 0 0.892865 0 0 0 0.4 0"/>
<feBlend mode="normal" in2="shape" result="effect1_innerShadow"/>
</filter>
<linearGradient id="paint0_linear" x1="15.5357" y1="13.125" x2="26.25" y2="16.3393" gradientUnits="userSpaceOnUse">
<stop stop-opacity="0.2"/>
<stop offset="0.911458" stop-color="white" stop-opacity="0"/>
</linearGradient>
</defs>
</svg>
