<svg width="48" height="48" viewBox="0 0 48 48" fill="none" xmlns="http://www.w3.org/2000/svg">
<path opacity="0.3" d="M18 3.4641C21.7128 1.32051 26.2872 1.32051 30 3.4641L38.7846 8.5359C42.4974 10.6795 44.7846 14.641 44.7846 18.9282V29.0718C44.7846 33.359 42.4974 37.3205 38.7846 39.4641L30 44.5359C26.2872 46.6795 21.7128 46.6795 18 44.5359L9.21539 39.4641C5.50258 37.3205 3.21539 33.359 3.21539 29.0718V18.9282C3.21539 14.641 5.50258 10.6795 9.21539 8.5359L18 3.4641Z" fill="#E4E6EF"/>
<path d="M12.1094 28.8281C12.0781 28.2292 12.0312 27.6068 11.9688 26.9609C12.5365 27.1484 12.9818 27.276 13.3047 27.3438C13.6328 27.4115 13.9479 27.4453 14.25 27.4453C14.4948 27.4453 14.7318 27.4115 14.9609 27.3438C15.1641 27.2865 15.3438 27.2109 15.5 27.1172C15.6146 27.0391 15.7109 26.9531 15.7891 26.8594C15.9036 26.724 15.9974 26.5677 16.0703 26.3906C16.1432 26.2031 16.2005 25.9479 16.2422 25.625C16.2995 25.1979 16.349 24.4896 16.3906 23.5C16.4219 22.724 16.4505 21.8542 16.4766 20.8906C16.4974 20.0833 16.5078 19.2318 16.5078 18.3359C17.1276 18.3464 17.526 18.3516 17.7031 18.3516C17.9115 18.3516 18.3281 18.3464 18.9531 18.3359L18.7422 21.6875C18.7005 22.4948 18.6562 23.6016 18.6094 25.0078C18.5781 25.9714 18.526 26.6302 18.4531 26.9844C18.401 27.2552 18.3203 27.4948 18.2109 27.7031C18.112 27.8906 17.9896 28.0573 17.8438 28.2031C17.6719 28.3698 17.4635 28.5182 17.2188 28.6484C16.901 28.8203 16.5625 28.9479 16.2031 29.0312C15.8021 29.1302 15.3672 29.1797 14.8984 29.1797C14.1016 29.1797 13.1719 29.0625 12.1094 28.8281ZM27.6406 27.2266C27.5729 27.5339 27.4766 28.0859 27.3516 28.8828C26.7891 29.0026 26.3151 29.0833 25.9297 29.125C25.5443 29.1667 25.1562 29.1875 24.7656 29.1875C24.0833 29.1875 23.4714 29.1198 22.9297 28.9844C22.3932 28.849 21.9219 28.6016 21.5156 28.2422C21.1094 27.8776 20.8099 27.4323 20.6172 26.9062C20.4245 26.3802 20.3281 25.8281 20.3281 25.25C20.3281 24.6094 20.4401 23.9896 20.6641 23.3906C20.888 22.7865 21.2005 22.2943 21.6016 21.9141C22.0078 21.5286 22.4688 21.2578 22.9844 21.1016C23.5 20.9401 24.0391 20.8594 24.6016 20.8594C25.1328 20.8594 25.638 20.9271 26.1172 21.0625C26.5964 21.1927 26.9974 21.4089 27.3203 21.7109C27.6484 22.013 27.8984 22.3776 28.0703 22.8047C28.2474 23.2266 28.3359 23.6979 28.3359 24.2188C28.3359 24.4635 28.3099 24.7161 28.2578 24.9766L22.5312 24.9844C22.5208 25.1771 22.5156 25.3307 22.5156 25.4453C22.5156 25.7943 22.5755 26.1146 22.6953 26.4062C22.8151 26.6979 22.9896 26.9453 23.2188 27.1484C23.4479 27.3516 23.7214 27.5026 24.0391 27.6016C24.3568 27.6953 24.6693 27.7422 24.9766 27.7422C25.3359 27.7422 25.724 27.7031 26.1406 27.625C26.5625 27.5469 27.0625 27.4141 27.6406 27.2266ZM22.5938 24.0703L26.25 24.0781C26.25 23.8281 26.2422 23.6432 26.2266 23.5234C26.2109 23.4036 26.1745 23.2682 26.1172 23.1172C26.0651 22.9609 25.9922 22.8255 25.8984 22.7109C25.8047 22.5911 25.6953 22.4922 25.5703 22.4141C25.4453 22.3359 25.2995 22.276 25.1328 22.2344C24.9714 22.1927 24.7969 22.1719 24.6094 22.1719C24.3906 22.1719 24.1771 22.2057 23.9688 22.2734C23.7656 22.3411 23.5781 22.4401 23.4062 22.5703C23.2344 22.7005 23.0938 22.8464 22.9844 23.0078C22.8802 23.1693 22.8021 23.3255 22.75 23.4766C22.6979 23.6224 22.6458 23.8203 22.5938 24.0703ZM34.3906 27.3672C34.3281 27.6536 34.2292 28.1849 34.0938 28.9609C33.6562 29.0599 33.3125 29.1224 33.0625 29.1484C32.8125 29.1745 32.5781 29.1875 32.3594 29.1875C31.974 29.1875 31.6276 29.151 31.3203 29.0781C31.0182 29.0052 30.7682 28.8776 30.5703 28.6953C30.3724 28.5078 30.237 28.2917 30.1641 28.0469C30.0964 27.7969 30.0625 27.5391 30.0625 27.2734C30.0625 27.2057 30.0651 27.1146 30.0703 27C30.0755 26.8854 30.0964 26.5156 30.1328 25.8906L30.3125 22.6406H29.1875C29.2135 22.3281 29.237 21.8255 29.2578 21.1328H30.4375C30.4688 20.8307 30.5 20.3177 30.5312 19.5938L31.4531 19.4141C31.6458 19.3776 32.0182 19.2917 32.5703 19.1562C32.5339 19.8594 32.513 20.5182 32.5078 21.1328H34.4922C34.4557 21.8359 34.4375 22.3385 34.4375 22.6406H32.4453C32.3359 24.7604 32.2812 25.987 32.2812 26.3203C32.2812 26.6432 32.3151 26.8932 32.3828 27.0703C32.4557 27.2474 32.5703 27.375 32.7266 27.4531C32.8828 27.5312 33.0495 27.5703 33.2266 27.5703C33.3568 27.5703 33.4922 27.5599 33.6328 27.5391C33.7786 27.5182 34.0312 27.4609 34.3906 27.3672Z" fill="#596D95"/>
</svg>
