<svg width="50" height="26" viewBox="0 0 50 26" fill="none" xmlns="http://www.w3.org/2000/svg">
<path d="M0 6C0 2.68629 2.68629 0 6 0H48C49.1046 0 50 0.895431 50 2V20C50 23.3137 47.3137 26 44 26H2C0.895432 26 0 25.1046 0 24V6Z" fill="#0094FF"/>
<path d="M8.53 18C8.43 18 8.345 17.965 8.275 17.895C8.205 17.825 8.17 17.74 8.17 17.64V7.875C8.17 7.765 8.2 7.675 8.26 7.605C8.33 7.535 8.42 7.5 8.53 7.5H12.19C15.13 7.5 16.63 8.86 16.69 11.58C16.71 12.16 16.72 12.55 16.72 12.75C16.72 12.94 16.71 13.325 16.69 13.905C16.65 15.305 16.275 16.34 15.565 17.01C14.855 17.67 13.755 18 12.265 18H8.53ZM12.19 16.275C13.03 16.275 13.635 16.09 14.005 15.72C14.375 15.34 14.57 14.72 14.59 13.86C14.61 13.26 14.62 12.885 14.62 12.735C14.62 12.575 14.61 12.205 14.59 11.625C14.57 10.805 14.36 10.2 13.96 9.81C13.57 9.42 12.955 9.225 12.115 9.225H10.255V16.275H12.19ZM21.8969 18.15C20.7869 18.15 19.9019 17.83 19.2419 17.19C18.5919 16.54 18.2469 15.63 18.2069 14.46L18.1919 14.085L18.2069 13.71C18.2569 12.57 18.6069 11.675 19.2569 11.025C19.9169 10.375 20.7969 10.05 21.8969 10.05C23.0769 10.05 23.9869 10.41 24.6269 11.13C25.2769 11.85 25.6019 12.81 25.6019 14.01V14.325C25.6019 14.425 25.5669 14.51 25.4969 14.58C25.4269 14.65 25.3369 14.685 25.2269 14.685H20.2469V14.805C20.2669 15.355 20.4169 15.82 20.6969 16.2C20.9869 16.57 21.3819 16.755 21.8819 16.755C22.4719 16.755 22.9469 16.525 23.3069 16.065C23.3969 15.955 23.4669 15.885 23.5169 15.855C23.5769 15.825 23.6619 15.81 23.7719 15.81H25.0619C25.1519 15.81 25.2269 15.84 25.2869 15.9C25.3569 15.95 25.3919 16.015 25.3919 16.095C25.3919 16.335 25.2469 16.62 24.9569 16.95C24.6769 17.27 24.2719 17.55 23.7419 17.79C23.2119 18.03 22.5969 18.15 21.8969 18.15ZM23.5619 13.425V13.38C23.5619 12.79 23.4119 12.315 23.1119 11.955C22.8219 11.595 22.4169 11.415 21.8969 11.415C21.3769 11.415 20.9719 11.595 20.6819 11.955C20.3919 12.315 20.2469 12.79 20.2469 13.38V13.425H23.5619ZM29.6758 18C29.5258 18 29.4108 17.97 29.3308 17.91C29.2508 17.84 29.1858 17.745 29.1358 17.625L26.3308 10.665L26.3008 10.53C26.3008 10.44 26.3308 10.365 26.3908 10.305C26.4608 10.235 26.5408 10.2 26.6308 10.2H27.8458C28.0358 10.2 28.1658 10.295 28.2358 10.485L30.2308 15.75L32.2258 10.485C32.2558 10.415 32.3008 10.35 32.3608 10.29C32.4308 10.23 32.5158 10.2 32.6158 10.2H33.8458C33.9258 10.2 33.9958 10.235 34.0558 10.305C34.1258 10.365 34.1608 10.44 34.1608 10.53C34.1608 10.59 34.1558 10.635 34.1458 10.665L31.3258 17.625C31.2758 17.745 31.2108 17.84 31.1308 17.91C31.0508 17.97 30.9358 18 30.7858 18H29.6758ZM38.235 18.15C37.485 18.15 36.855 18.04 36.345 17.82C35.835 17.59 35.455 17.325 35.205 17.025C34.965 16.715 34.845 16.45 34.845 16.23C34.845 16.13 34.88 16.05 34.95 15.99C35.02 15.93 35.1 15.9 35.19 15.9H36.375C36.465 15.9 36.54 15.935 36.6 16.005C36.64 16.035 36.745 16.125 36.915 16.275C37.085 16.435 37.285 16.56 37.515 16.65C37.745 16.74 38 16.785 38.28 16.785C38.68 16.785 39.01 16.705 39.27 16.545C39.53 16.385 39.66 16.165 39.66 15.885C39.66 15.675 39.6 15.505 39.48 15.375C39.37 15.245 39.165 15.13 38.865 15.03C38.565 14.92 38.12 14.805 37.53 14.685C36.68 14.505 36.05 14.23 35.64 13.86C35.24 13.49 35.04 13 35.04 12.39C35.04 11.99 35.16 11.615 35.4 11.265C35.64 10.905 35.995 10.615 36.465 10.395C36.945 10.165 37.515 10.05 38.175 10.05C38.845 10.05 39.425 10.16 39.915 10.38C40.405 10.59 40.775 10.845 41.025 11.145C41.285 11.435 41.415 11.695 41.415 11.925C41.415 12.015 41.38 12.095 41.31 12.165C41.25 12.225 41.175 12.255 41.085 12.255H39.975C39.895 12.255 39.81 12.22 39.72 12.15C39.65 12.1 39.54 12.005 39.39 11.865C39.24 11.725 39.065 11.615 38.865 11.535C38.665 11.455 38.43 11.415 38.16 11.415C37.79 11.415 37.5 11.495 37.29 11.655C37.09 11.815 36.99 12.025 36.99 12.285C36.99 12.475 37.04 12.63 37.14 12.75C37.24 12.87 37.435 12.985 37.725 13.095C38.015 13.205 38.45 13.315 39.03 13.425C39.99 13.615 40.675 13.91 41.085 14.31C41.505 14.71 41.715 15.2 41.715 15.78C41.715 16.48 41.41 17.05 40.8 17.49C40.19 17.93 39.335 18.15 38.235 18.15Z" fill="white"/>
</svg>
