<?xml version="1.0" encoding="iso-8859-1"?>
<!-- Generator: Adobe Illustrator 19.0.0, SVG Export Plug-In . SVG Version: 6.00 Build 0)  -->
<svg version="1.1" id="Capa_1" xmlns="http://www.w3.org/2000/svg" xmlns:xlink="http://www.w3.org/1999/xlink" x="0px" y="0px"
	 viewBox="0 0 409.6 409.6" style="enable-background:new 0 0 409.6 409.6;" xml:space="preserve">
<g>
	<g>
		<path d="M34.135,136.535C15.365,136.535,0,151.9,0,170.665V204.8h34.135v-34.135h34.13v-34.13H34.135z"/>
	</g>
</g>
<g>
	<g>
		<path d="M375.465,0h-204.8c-18.765,0-34.13,15.365-34.13,34.135v102.4h34.13v34.13h-34.13v68.234
			c0,18.765,15.365,34.135,34.13,34.135h68.285v-34.099h34.135v34.099h102.38c18.77,0,34.135-15.37,34.135-34.135V34.135
			C409.6,15.365,394.235,0,375.465,0z M238.95,204.8v-34.135H204.8v-34.13h34.15c18.765,0,34.135,15.365,34.135,34.13V204.8H238.95z
			"/>
	</g>
</g>
<g>
	<g>
		<rect x="102.4" y="375.45" width="68.265" height="34.135"/>
	</g>
</g>
<g>
	<g>
		<path d="M238.95,341.335v34.13H204.8V409.6h34.15c18.765,0,34.135-15.365,34.135-34.135v-34.13H238.95z"/>
	</g>
</g>
<g>
	<g>
		<path d="M34.135,375.465v-34.13H0v34.13c0,18.77,15.365,34.135,34.135,34.135h34.13v-34.135H34.135z"/>
	</g>
</g>
<g>
	<g>
		<rect y="238.935" width="34.135" height="68.265"/>
	</g>
</g>
<g>
</g>
<g>
</g>
<g>
</g>
<g>
</g>
<g>
</g>
<g>
</g>
<g>
</g>
<g>
</g>
<g>
</g>
<g>
</g>
<g>
</g>
<g>
</g>
<g>
</g>
<g>
</g>
<g>
</g>
</svg>
