<?xml version="1.0" encoding="iso-8859-1"?>
<!-- Generator: Adobe Illustrator 16.0.0, SVG Export Plug-In . SVG Version: 6.00 Build 0)  -->
<!DOCTYPE svg PUBLIC "-//W3C//DTD SVG 1.1//EN" "http://www.w3.org/Graphics/SVG/1.1/DTD/svg11.dtd">
<svg version="1.1" id="Capa_1" xmlns="http://www.w3.org/2000/svg" xmlns:xlink="http://www.w3.org/1999/xlink" x="0px" y="0px"
	 width="454.522px" height="454.522px" viewBox="0 0 454.522 454.522" style="enable-background:new 0 0 454.522 454.522;"
	 xml:space="preserve">
<g>
	<path d="M248.299,399.167c12.354,12.354,12.354,32.391,0,44.744c-12.354,12.365-32.391,12.365-44.75,0L9.259,249.63
		C3.085,243.453,0,235.355,0,227.258c0-8.095,3.091-16.192,9.259-22.366l194.29-194.284c12.359-12.359,32.396-12.359,44.75,0
		c12.354,12.354,12.354,32.388,0,44.748L76.391,227.258L248.299,399.167z M273.349,227.258L445.258,55.355
		c12.354-12.359,12.354-32.394,0-44.748c-12.354-12.359-32.392-12.359-44.751,0L206.218,204.892
		c-6.174,6.18-9.26,14.271-9.26,22.366c0,8.098,3.092,16.195,9.26,22.372l194.289,194.281c12.359,12.365,32.397,12.365,44.751,0
		c12.354-12.354,12.354-32.391,0-44.744L273.349,227.258z"/>
</g>
<g>
</g>
<g>
</g>
<g>
</g>
<g>
</g>
<g>
</g>
<g>
</g>
<g>
</g>
<g>
</g>
<g>
</g>
<g>
</g>
<g>
</g>
<g>
</g>
<g>
</g>
<g>
</g>
<g>
</g>
</svg>
