<?xml version="1.0" encoding="iso-8859-1"?>
<!-- Generator: Adobe Illustrator 16.0.0, SVG Export Plug-In . SVG Version: 6.00 Build 0)  -->
<!DOCTYPE svg PUBLIC "-//W3C//DTD SVG 1.1//EN" "http://www.w3.org/Graphics/SVG/1.1/DTD/svg11.dtd">
<svg version="1.1" id="Capa_1" xmlns="http://www.w3.org/2000/svg" xmlns:xlink="http://www.w3.org/1999/xlink" x="0px" y="0px"
	 width="41.915px" height="41.916px" viewBox="0 0 41.915 41.916" style="enable-background:new 0 0 41.915 41.916;"
	 xml:space="preserve">
<g>
	<g>
		<path d="M11.214,20.956c0,3.091-2.509,5.589-5.607,5.589C2.51,26.544,0,24.046,0,20.956c0-3.082,2.511-5.585,5.607-5.585
			C8.705,15.371,11.214,17.874,11.214,20.956z"/>
		<path d="M26.564,20.956c0,3.091-2.509,5.589-5.606,5.589c-3.097,0-5.607-2.498-5.607-5.589c0-3.082,2.511-5.585,5.607-5.585
			C24.056,15.371,26.564,17.874,26.564,20.956z"/>
		<path d="M41.915,20.956c0,3.091-2.509,5.589-5.607,5.589c-3.097,0-5.606-2.498-5.606-5.589c0-3.082,2.511-5.585,5.606-5.585
			C39.406,15.371,41.915,17.874,41.915,20.956z"/>
	</g>
</g>
<g>
</g>
<g>
</g>
<g>
</g>
<g>
</g>
<g>
</g>
<g>
</g>
<g>
</g>
<g>
</g>
<g>
</g>
<g>
</g>
<g>
</g>
<g>
</g>
<g>
</g>
<g>
</g>
<g>
</g>
</svg>
