<svg width="509" height="487" viewBox="0 0 509 487" fill="none" xmlns="http://www.w3.org/2000/svg">
<path d="M170.354 59.0011C160.175 58.9063 151.621 66.2573 149.956 76.0343L149.741 79.3952C149.717 79.7684 149.686 80.1395 149.649 80.5084C149.631 80.6899 149.611 80.8709 149.589 81.0515L149.479 83.952L149.098 83.9375C146.003 97.8889 133.126 107.894 118.42 106.954C104.237 106.048 93.0381 95.2625 91.098 81.7315L90.5214 81.7096L90.7203 76.4785C92.3553 33.4918 127.887 -0.396639 170.903 0.00350729L427.099 2.3873C470.447 2.79062 505.48 37.846 505.857 81.1937L508.107 340.38C508.463 381.311 476.974 415.485 436.15 418.472L436.129 418.183C422.75 418.197 410.625 409.047 407.413 395.463C403.665 379.608 413.479 363.716 429.335 359.968L433.714 358.932L433.82 359.379C442.636 357.784 449.189 350.042 449.109 340.892L446.859 81.7059C446.762 70.5282 437.728 61.4887 426.551 61.3847L170.354 59.0011Z" fill="black"/>
<path fill-rule="evenodd" clip-rule="evenodd" d="M59 127C26.4152 127 0 153.415 0 186V427.456C0 460.041 26.4152 486.456 59 486.456H328.304C360.888 486.456 387.304 460.041 387.304 427.456V186C387.304 153.415 360.888 127 328.304 127H59ZM63.3895 208.247C63.3895 197.201 72.3438 188.247 83.3895 188.247H303.914C314.96 188.247 323.914 197.201 323.914 208.247V404.102C323.914 415.148 314.96 424.102 303.914 424.102H83.3895C72.3438 424.102 63.3895 415.148 63.3895 404.102V208.247Z" fill="black"/>
</svg>
