<?xml version="1.0" encoding="iso-8859-1"?>
<!-- Generator: Adobe Illustrator 16.0.0, SVG Export Plug-In . SVG Version: 6.00 Build 0)  -->
<!DOCTYPE svg PUBLIC "-//W3C//DTD SVG 1.1//EN" "http://www.w3.org/Graphics/SVG/1.1/DTD/svg11.dtd">
<svg version="1.1" id="Capa_1" xmlns="http://www.w3.org/2000/svg" xmlns:xlink="http://www.w3.org/1999/xlink" x="0px" y="0px"
	 width="975.9px" height="975.9px" viewBox="0 0 975.9 975.9" style="enable-background:new 0 0 975.9 975.9;" xml:space="preserve"
	>
<g>
	<path d="M386.842,940.801c23.4,23.399,54.101,35.1,84.9,35.1s61.4-11.7,84.9-35.1l368-368l0,0c19.6-19.601,33.199-47.601,35-75.4
		c0.5-7.9,0.5-16.5-0.7-24.3c-2.2-15-6.5-29.601-13.9-42.9c-5.5-9.899-12.399-19.1-20.399-27.1l0,0l-368-368
		c-46.9-46.801-122.9-46.801-169.801,0c-46.899,46.899-46.899,122.8,0,169.699L549.942,367.9h-414c-66.3,0-120,53.7-120,120
		s53.7,120,120,120h414l-163.101,163.2C339.942,818,339.942,894,386.842,940.801z"/>
</g>
<g>
</g>
<g>
</g>
<g>
</g>
<g>
</g>
<g>
</g>
<g>
</g>
<g>
</g>
<g>
</g>
<g>
</g>
<g>
</g>
<g>
</g>
<g>
</g>
<g>
</g>
<g>
</g>
<g>
</g>
</svg>
