<?xml version="1.0" encoding="iso-8859-1"?>
<!-- Generator: Adobe Illustrator 16.0.0, SVG Export Plug-In . SVG Version: 6.00 Build 0)  -->
<!DOCTYPE svg PUBLIC "-//W3C//DTD SVG 1.1//EN" "http://www.w3.org/Graphics/SVG/1.1/DTD/svg11.dtd">
<svg version="1.1" id="Capa_1" xmlns="http://www.w3.org/2000/svg" xmlns:xlink="http://www.w3.org/1999/xlink" x="0px" y="0px"
	 width="979.469px" height="979.469px" viewBox="0 0 979.469 979.469" style="enable-background:new 0 0 979.469 979.469;"
	 xml:space="preserve">
<g>
	<path d="M421.337,945.03l-377.5-378.1c-44.4-44.5-44.4-111.1,0-155.401l377.5-377.3c44.3-44.3,113.7-46.2,157.7-2.2
		c43,43,38.399,115.5-3.4,157.2l-184.399,184.4c0,0,465.1,0.6,465.3,0.6c30.8,0,60.5,12,81.6,34.4
		c50.601,54,37.101,148.5-27.7,184.4c-16.399,9.101-35.1,13.9-53.899,13.801l-465.3-0.4c0,0,184.3,184.2,184.399,184.3
		c41.9,41.9,46.101,114.101,3.4,156.9C535.037,991.631,465.637,989.331,421.337,945.03z"/>
</g>
<g>
</g>
<g>
</g>
<g>
</g>
<g>
</g>
<g>
</g>
<g>
</g>
<g>
</g>
<g>
</g>
<g>
</g>
<g>
</g>
<g>
</g>
<g>
</g>
<g>
</g>
<g>
</g>
<g>
</g>
</svg>
