<?xml version="1.0" encoding="iso-8859-1"?>
<!-- Generator: Adobe Illustrator 19.0.0, SVG Export Plug-In . SVG Version: 6.00 Build 0)  -->
<svg version="1.1" id="Capa_1" xmlns="http://www.w3.org/2000/svg" xmlns:xlink="http://www.w3.org/1999/xlink" x="0px" y="0px"
	 viewBox="0 0 512 512" style="enable-background:new 0 0 512 512;" xml:space="preserve">
<g>
	<g>
		<path d="M487.322,211.948l-38.769-7.741c-10.015-2.007-18.35-8.929-22.467-18.944c-3.973-9.564-2.949-20.316,2.703-28.795
			l21.914-32.87c8.11-12.165,6.492-28.447-3.85-38.748l-19.702-19.722c-10.301-10.322-26.604-11.94-38.748-3.83l-32.87,21.893
			c-8.52,5.652-19.272,6.656-29.204,2.56c-9.605-3.953-16.527-12.288-18.534-22.303l-7.741-38.769
			C297.206,10.383,284.529,0,269.926,0h-27.853c-14.602,0-27.279,10.383-30.126,24.699l-7.741,38.748
			c-2.007,10.015-8.929,18.35-18.944,22.467c-9.564,3.973-20.316,2.97-28.795-2.724l-32.87-21.893
			c-12.145-8.09-28.447-6.492-38.748,3.83L65.147,84.828c-10.342,10.322-11.96,26.604-3.85,38.769l21.893,32.87
			c5.673,8.479,6.697,19.231,2.56,29.204c-3.953,9.605-12.288,16.527-22.303,18.534l-38.769,7.741
			C10.383,214.815,0,227.471,0,242.053v27.873c0,14.602,10.383,27.259,24.699,30.126l38.748,7.741
			c10.015,2.007,18.35,8.929,22.467,18.944c3.973,9.564,2.949,20.316-2.724,28.795l-21.893,32.87
			c-8.11,12.165-6.492,28.447,3.85,38.748l19.681,19.702c10.322,10.301,26.624,11.96,38.769,3.85l32.87-21.893
			c8.499-5.693,19.251-6.697,29.204-2.56c9.605,3.953,16.527,12.288,18.534,22.303l7.741,38.769
			C214.815,501.617,227.471,512,242.074,512h27.853c14.602,0,27.259-10.383,30.126-24.699l7.741-38.748
			c2.007-10.015,8.929-18.35,18.944-22.467c9.585-3.994,20.316-2.949,28.795,2.724l32.87,21.893
			c12.165,8.11,28.467,6.472,38.748-3.85l19.702-19.681c10.342-10.322,11.96-26.604,3.85-38.769l-21.914-32.87
			c-5.652-8.479-6.677-19.231-2.56-29.204c3.973-9.605,12.308-16.527,22.323-18.534l38.769-7.741
			C501.617,297.185,512,284.529,512,269.926v-27.873C512,227.471,501.617,214.815,487.322,211.948z M256,327.68
			c-39.526,0-71.68-32.154-71.68-71.68s32.154-71.68,71.68-71.68s71.68,32.154,71.68,71.68S295.526,327.68,256,327.68z"/>
	</g>
</g>
<g>
</g>
<g>
</g>
<g>
</g>
<g>
</g>
<g>
</g>
<g>
</g>
<g>
</g>
<g>
</g>
<g>
</g>
<g>
</g>
<g>
</g>
<g>
</g>
<g>
</g>
<g>
</g>
<g>
</g>
</svg>
