<?xml version="1.0" encoding="iso-8859-1"?>
<!-- Generator: Adobe Illustrator 16.0.0, SVG Export Plug-In . SVG Version: 6.00 Build 0)  -->
<!DOCTYPE svg PUBLIC "-//W3C//DTD SVG 1.1//EN" "http://www.w3.org/Graphics/SVG/1.1/DTD/svg11.dtd">
<svg version="1.1" id="Capa_1" xmlns="http://www.w3.org/2000/svg" xmlns:xlink="http://www.w3.org/1999/xlink" x="0px" y="0px"
	 width="543.232px" height="543.232px" viewBox="0 0 543.232 543.232" style="enable-background:new 0 0 543.232 543.232;"
	 xml:space="preserve">
<g>
	<g>
		<path d="M85.972,416.447c5.838,9.139,15.716,14.133,25.814,14.133c5.637,0,11.347-1.555,16.444-4.816
			c14.241-9.102,18.409-28.023,9.309-42.26L66.915,272.953l70.631-110.54c9.1-14.241,4.933-33.158-9.309-42.258
			c-14.248-9.095-33.158-4.933-42.259,9.309L4.815,256.478c-6.42,10.043-6.42,22.907,0,32.95L85.972,416.447z"/>
		<path d="M415.002,425.756c5.104,3.264,10.808,4.816,16.444,4.816c10.092,0,19.976-4.986,25.813-14.131l81.158-127.014
			c6.42-10.043,6.42-22.907,0-32.95l-81.151-127.014c-9.095-14.248-28.03-18.416-42.259-9.309
			c-14.241,9.1-18.409,28.023-9.309,42.258l70.631,110.54l-70.637,110.545C396.593,397.732,400.761,416.656,415.002,425.756z"/>
		<path d="M165.667,492.6c4.272,2.043,8.776,3.018,13.213,3.018c11.401,0,22.35-6.402,27.613-17.375L391.979,91.452
			c7.307-15.239,0.881-33.519-14.357-40.82c-15.245-7.307-33.52-0.881-40.821,14.357L151.309,451.779
			C144.002,467.018,150.428,485.299,165.667,492.6z"/>
	</g>
</g>
<g>
</g>
<g>
</g>
<g>
</g>
<g>
</g>
<g>
</g>
<g>
</g>
<g>
</g>
<g>
</g>
<g>
</g>
<g>
</g>
<g>
</g>
<g>
</g>
<g>
</g>
<g>
</g>
<g>
</g>
</svg>
