<?xml version="1.0" encoding="iso-8859-1"?>
<!-- Generator: Adobe Illustrator 16.0.0, SVG Export Plug-In . SVG Version: 6.00 Build 0)  -->
<!DOCTYPE svg PUBLIC "-//W3C//DTD SVG 1.1//EN" "http://www.w3.org/Graphics/SVG/1.1/DTD/svg11.dtd">
<svg version="1.1" id="Capa_1" xmlns="http://www.w3.org/2000/svg" xmlns:xlink="http://www.w3.org/1999/xlink" x="0px" y="0px"
	 width="970.627px" height="970.627px" viewBox="0 0 970.627 970.627" style="enable-background:new 0 0 970.627 970.627;"
	 xml:space="preserve">
<g>
	<path d="M49.777,943.627c22.3,18.101,49.1,27,75.7,27c34.8,0,69.4-15.1,93.1-44.199l298.7-366.7c36-44.101,36-107.401,0-151.601
		l-296.4-363.899c-41.9-51.4-117.4-59.1-168.8-17.3c-51.4,41.9-59.1,117.5-17.3,168.9l234.7,288.101l-237,290.9
		C-9.323,826.127-1.623,901.728,49.777,943.627z"/>
	<path d="M641.777,44.227c-41.801-51.4-117.4-59.1-168.801-17.3c-51.399,41.9-59.1,117.4-17.199,168.8l234.6,288.1l-237,290.901
		c-41.9,51.399-34.1,127,17.2,168.8c22.3,18.1,49.1,27,75.7,27c34.8,0,69.399-15.1,93.1-44.2l298.7-366.7c36-44.1,36-107.4,0-151.6
		L641.777,44.227z"/>
</g>
<g>
</g>
<g>
</g>
<g>
</g>
<g>
</g>
<g>
</g>
<g>
</g>
<g>
</g>
<g>
</g>
<g>
</g>
<g>
</g>
<g>
</g>
<g>
</g>
<g>
</g>
<g>
</g>
<g>
</g>
</svg>
