<?xml version="1.0" encoding="iso-8859-1"?>
<!-- Generator: Adobe Illustrator 16.0.0, SVG Export Plug-In . SVG Version: 6.00 Build 0)  -->
<!DOCTYPE svg PUBLIC "-//W3C//DTD SVG 1.1//EN" "http://www.w3.org/Graphics/SVG/1.1/DTD/svg11.dtd">
<svg version="1.1" id="Capa_1" xmlns="http://www.w3.org/2000/svg" xmlns:xlink="http://www.w3.org/1999/xlink" x="0px" y="0px"
	 width="976.051px" height="976.05px" viewBox="0 0 976.051 976.05" style="enable-background:new 0 0 976.051 976.05;"
	 xml:space="preserve">
<g>
	<path d="M572.875,51.326L572.875,51.326c-12.8-12.8-28.6-22.6-45.6-28.5c-4.9-1.7-10-3.1-15.101-4.2c-22.5-4.8-46.6-2.6-68,5.8
		c-15.3,6-29.3,15.2-41,26.9l0,0l-368,368c-46.899,46.899-46.899,122.8,0,169.699c46.9,46.9,122.801,46.9,169.7,0l163.1-163.1v414
		c0,66.3,53.7,120,120,120c66.301,0,120-53.7,120-120v-414l163.101,163.1c23.399,23.4,54.1,35.101,84.899,35.101
		c30.801,0,61.4-11.7,84.9-35.101c46.9-46.899,46.9-122.8,0-169.699L572.875,51.326z"/>
</g>
<g>
</g>
<g>
</g>
<g>
</g>
<g>
</g>
<g>
</g>
<g>
</g>
<g>
</g>
<g>
</g>
<g>
</g>
<g>
</g>
<g>
</g>
<g>
</g>
<g>
</g>
<g>
</g>
<g>
</g>
</svg>
