<svg width="46" height="46" viewBox="0 0 46 46" fill="none" xmlns="http://www.w3.org/2000/svg">
<g clip-path="url(#clip0)">
<path d="M17 2.4641C20.7128 0.320508 25.2872 0.320508 29 2.4641L37.7846 7.5359C41.4974 9.67949 43.7846 13.641 43.7846 17.9282V28.0718C43.7846 32.359 41.4974 36.3205 37.7846 38.4641L29 43.5359C25.2872 45.6795 20.7128 45.6795 17 43.5359L8.21539 38.4641C4.50258 36.3205 2.21539 32.359 2.21539 28.0718V17.9282C2.21539 13.641 4.50258 9.67949 8.21539 7.5359L17 2.4641Z" fill="#00B2FF"/>
<path d="M11.1094 27.8281C11.0781 27.2292 11.0312 26.6068 10.9688 25.9609C11.5365 26.1484 11.9818 26.276 12.3047 26.3438C12.6328 26.4115 12.9479 26.4453 13.25 26.4453C13.4948 26.4453 13.7318 26.4115 13.9609 26.3438C14.1641 26.2865 14.3438 26.2109 14.5 26.1172C14.6146 26.0391 14.7109 25.9531 14.7891 25.8594C14.9036 25.724 14.9974 25.5677 15.0703 25.3906C15.1432 25.2031 15.2005 24.9479 15.2422 24.625C15.2995 24.1979 15.349 23.4896 15.3906 22.5C15.4219 21.724 15.4505 20.8542 15.4766 19.8906C15.4974 19.0833 15.5078 18.2318 15.5078 17.3359C16.1276 17.3464 16.526 17.3516 16.7031 17.3516C16.9115 17.3516 17.3281 17.3464 17.9531 17.3359L17.7422 20.6875C17.7005 21.4948 17.6562 22.6016 17.6094 24.0078C17.5781 24.9714 17.526 25.6302 17.4531 25.9844C17.401 26.2552 17.3203 26.4948 17.2109 26.7031C17.112 26.8906 16.9896 27.0573 16.8438 27.2031C16.6719 27.3698 16.4635 27.5182 16.2188 27.6484C15.901 27.8203 15.5625 27.9479 15.2031 28.0312C14.8021 28.1302 14.3672 28.1797 13.8984 28.1797C13.1016 28.1797 12.1719 28.0625 11.1094 27.8281ZM26.6406 26.2266C26.5729 26.5339 26.4766 27.0859 26.3516 27.8828C25.7891 28.0026 25.3151 28.0833 24.9297 28.125C24.5443 28.1667 24.1562 28.1875 23.7656 28.1875C23.0833 28.1875 22.4714 28.1198 21.9297 27.9844C21.3932 27.849 20.9219 27.6016 20.5156 27.2422C20.1094 26.8776 19.8099 26.4323 19.6172 25.9062C19.4245 25.3802 19.3281 24.8281 19.3281 24.25C19.3281 23.6094 19.4401 22.9896 19.6641 22.3906C19.888 21.7865 20.2005 21.2943 20.6016 20.9141C21.0078 20.5286 21.4688 20.2578 21.9844 20.1016C22.5 19.9401 23.0391 19.8594 23.6016 19.8594C24.1328 19.8594 24.638 19.9271 25.1172 20.0625C25.5964 20.1927 25.9974 20.4089 26.3203 20.7109C26.6484 21.013 26.8984 21.3776 27.0703 21.8047C27.2474 22.2266 27.3359 22.6979 27.3359 23.2188C27.3359 23.4635 27.3099 23.7161 27.2578 23.9766L21.5312 23.9844C21.5208 24.1771 21.5156 24.3307 21.5156 24.4453C21.5156 24.7943 21.5755 25.1146 21.6953 25.4062C21.8151 25.6979 21.9896 25.9453 22.2188 26.1484C22.4479 26.3516 22.7214 26.5026 23.0391 26.6016C23.3568 26.6953 23.6693 26.7422 23.9766 26.7422C24.3359 26.7422 24.724 26.7031 25.1406 26.625C25.5625 26.5469 26.0625 26.4141 26.6406 26.2266ZM21.5938 23.0703L25.25 23.0781C25.25 22.8281 25.2422 22.6432 25.2266 22.5234C25.2109 22.4036 25.1745 22.2682 25.1172 22.1172C25.0651 21.9609 24.9922 21.8255 24.8984 21.7109C24.8047 21.5911 24.6953 21.4922 24.5703 21.4141C24.4453 21.3359 24.2995 21.276 24.1328 21.2344C23.9714 21.1927 23.7969 21.1719 23.6094 21.1719C23.3906 21.1719 23.1771 21.2057 22.9688 21.2734C22.7656 21.3411 22.5781 21.4401 22.4062 21.5703C22.2344 21.7005 22.0938 21.8464 21.9844 22.0078C21.8802 22.1693 21.8021 22.3255 21.75 22.4766C21.6979 22.6224 21.6458 22.8203 21.5938 23.0703ZM33.3906 26.3672C33.3281 26.6536 33.2292 27.1849 33.0938 27.9609C32.6562 28.0599 32.3125 28.1224 32.0625 28.1484C31.8125 28.1745 31.5781 28.1875 31.3594 28.1875C30.974 28.1875 30.6276 28.151 30.3203 28.0781C30.0182 28.0052 29.7682 27.8776 29.5703 27.6953C29.3724 27.5078 29.237 27.2917 29.1641 27.0469C29.0964 26.7969 29.0625 26.5391 29.0625 26.2734C29.0625 26.2057 29.0651 26.1146 29.0703 26C29.0755 25.8854 29.0964 25.5156 29.1328 24.8906L29.3125 21.6406H28.1875C28.2135 21.3281 28.237 20.8255 28.2578 20.1328H29.4375C29.4688 19.8307 29.5 19.3177 29.5312 18.5938L30.4531 18.4141C30.6458 18.3776 31.0182 18.2917 31.5703 18.1562C31.5339 18.8594 31.513 19.5182 31.5078 20.1328H33.4922C33.4557 20.8359 33.4375 21.3385 33.4375 21.6406H31.4453C31.3359 23.7604 31.2812 24.987 31.2812 25.3203C31.2812 25.6432 31.3151 25.8932 31.3828 26.0703C31.4557 26.2474 31.5703 26.375 31.7266 26.4531C31.8828 26.5312 32.0495 26.5703 32.2266 26.5703C32.3568 26.5703 32.4922 26.5599 32.6328 26.5391C32.7786 26.5182 33.0312 26.4609 33.3906 26.3672Z" fill="white"/>
</g>
<defs>
<clipPath id="clip0">
<rect width="46" height="46" fill="white"/>
</clipPath>
</defs>
</svg>
