<svg width="82" height="19" viewBox="0 0 82 19" fill="none" xmlns="http://www.w3.org/2000/svg">
<path d="M5.97388 18.24C4.67788 18.24 3.58988 18.056 2.70988 17.688C1.84588 17.32 1.20588 16.88 0.789875 16.368C0.373875 15.856 0.165875 15.4 0.165875 15C0.165875 14.84 0.221875 14.712 0.333875 14.616C0.461875 14.504 0.597875 14.448 0.741875 14.448H3.47788C3.57388 14.448 3.66188 14.488 3.74188 14.568C3.93388 14.696 4.07788 14.8 4.17388 14.88C4.52588 15.136 4.82988 15.328 5.08588 15.456C5.35788 15.568 5.68588 15.624 6.06988 15.624C6.53388 15.624 6.90988 15.536 7.19788 15.36C7.50188 15.168 7.65388 14.904 7.65388 14.568C7.65388 14.296 7.57388 14.08 7.41388 13.92C7.26988 13.76 6.98188 13.608 6.54988 13.464C6.11788 13.304 5.46188 13.136 4.58188 12.96C3.25388 12.688 2.22988 12.248 1.50988 11.64C0.805875 11.016 0.453875 10.184 0.453875 9.144C0.453875 8.488 0.661875 7.864 1.07788 7.272C1.49388 6.68 2.10988 6.2 2.92588 5.832C3.75788 5.464 4.74188 5.28 5.87788 5.28C7.01388 5.28 8.00588 5.456 8.85388 5.808C9.70188 6.16 10.3419 6.592 10.7739 7.104C11.2219 7.6 11.4459 8.056 11.4459 8.472C11.4459 8.616 11.3899 8.744 11.2779 8.856C11.1819 8.968 11.0619 9.024 10.9179 9.024H8.42188C8.29388 9.024 8.17388 8.984 8.06188 8.904C7.85388 8.792 7.66988 8.672 7.50988 8.544C7.23788 8.336 6.98188 8.176 6.74188 8.064C6.50188 7.952 6.20588 7.896 5.85388 7.896C5.43788 7.896 5.10188 7.992 4.84588 8.184C4.60588 8.376 4.48588 8.624 4.48588 8.928C4.48588 9.168 4.54988 9.368 4.67788 9.528C4.82188 9.688 5.10988 9.848 5.54188 10.008C5.98988 10.152 6.64588 10.304 7.50988 10.464C9.06188 10.736 10.1899 11.216 10.8939 11.904C11.6139 12.592 11.9739 13.4 11.9739 14.328C11.9739 15.512 11.4459 16.464 10.3899 17.184C9.33388 17.888 7.86188 18.24 5.97388 18.24ZM20.4172 18C17.1052 18 15.4492 16.424 15.4492 13.272V8.664H13.5772C13.4012 8.664 13.2492 8.608 13.1212 8.496C13.0092 8.384 12.9532 8.24 12.9532 8.064V6.12C12.9532 5.944 13.0092 5.8 13.1212 5.688C13.2492 5.576 13.4012 5.52 13.5772 5.52H15.4492V1.56C15.4492 1.384 15.5052 1.24 15.6172 1.128C15.7452 1.016 15.8892 0.959999 16.0492 0.959999H18.8332C19.0092 0.959999 19.1532 1.016 19.2652 1.128C19.3772 1.24 19.4332 1.384 19.4332 1.56V5.52H22.4332C22.6092 5.52 22.7532 5.576 22.8652 5.688C22.9932 5.8 23.0572 5.944 23.0572 6.12V8.064C23.0572 8.24 22.9932 8.384 22.8652 8.496C22.7532 8.608 22.6092 8.664 22.4332 8.664H19.4332V12.936C19.4332 14.12 19.8892 14.712 20.8012 14.712H22.6492C22.8252 14.712 22.9692 14.768 23.0812 14.88C23.1932 14.992 23.2492 15.136 23.2492 15.312V17.4C23.2492 17.56 23.1932 17.704 23.0812 17.832C22.9692 17.944 22.8252 18 22.6492 18H20.4172ZM29.8203 18.24C28.4123 18.24 27.2763 17.768 26.4123 16.824C25.5483 15.864 25.1163 14.528 25.1163 12.816V6.12C25.1163 5.944 25.1723 5.8 25.2843 5.688C25.3963 5.576 25.5403 5.52 25.7163 5.52H28.7163C28.8923 5.52 29.0363 5.576 29.1483 5.688C29.2763 5.8 29.3403 5.944 29.3403 6.12V12.672C29.3403 14.24 30.0363 15.024 31.4283 15.024C32.1003 15.024 32.6283 14.816 33.0123 14.4C33.3963 13.984 33.5883 13.408 33.5883 12.672V6.12C33.5883 5.944 33.6443 5.8 33.7563 5.688C33.8843 5.576 34.0283 5.52 34.1883 5.52H37.1883C37.3643 5.52 37.5083 5.576 37.6203 5.688C37.7323 5.8 37.7883 5.944 37.7883 6.12V17.4C37.7883 17.56 37.7323 17.704 37.6203 17.832C37.5083 17.944 37.3643 18 37.1883 18H34.4043C34.2443 18 34.1003 17.944 33.9723 17.832C33.8603 17.704 33.8043 17.56 33.8043 17.4V16.488C32.9723 17.656 31.6443 18.24 29.8203 18.24ZM45.2673 18.24C43.6993 18.24 42.4753 17.752 41.5953 16.776C40.7313 15.784 40.2593 14.392 40.1793 12.6L40.1553 11.76L40.1793 10.896C40.2433 9.168 40.7153 7.8 41.5953 6.792C42.4913 5.784 43.7153 5.28 45.2673 5.28C46.7233 5.28 47.8993 5.752 48.7953 6.696V1.56C48.7953 1.384 48.8513 1.24 48.9633 1.128C49.0753 1.016 49.2193 0.959999 49.3953 0.959999H52.3233C52.4993 0.959999 52.6433 1.016 52.7553 1.128C52.8673 1.24 52.9233 1.384 52.9233 1.56V17.4C52.9233 17.56 52.8673 17.704 52.7553 17.832C52.6433 17.944 52.4993 18 52.3233 18H49.6113C49.4513 18 49.3073 17.944 49.1793 17.832C49.0673 17.704 49.0113 17.56 49.0113 17.4V16.632C48.1313 17.704 46.8833 18.24 45.2673 18.24ZM46.5873 15.024C47.3073 15.024 47.8433 14.8 48.1953 14.352C48.5473 13.888 48.7473 13.296 48.7953 12.576C48.8113 12.368 48.8193 12.064 48.8193 11.664C48.8193 11.28 48.8113 10.984 48.7953 10.776C48.7633 10.12 48.5633 9.576 48.1953 9.144C47.8273 8.712 47.2913 8.496 46.5873 8.496C45.8353 8.496 45.2913 8.72 44.9553 9.168C44.6353 9.616 44.4513 10.232 44.4033 11.016C44.3873 11.176 44.3793 11.424 44.3793 11.76C44.3793 12.096 44.3873 12.344 44.4033 12.504C44.4513 13.288 44.6353 13.904 44.9553 14.352C45.2913 14.8 45.8353 15.024 46.5873 15.024ZM56.3279 3.72C56.1519 3.72 56.0079 3.664 55.8959 3.552C55.7839 3.44 55.7279 3.296 55.7279 3.12V0.959999C55.7279 0.783999 55.7839 0.639999 55.8959 0.527999C56.0079 0.415999 56.1519 0.36 56.3279 0.36H59.2079C59.3839 0.36 59.5279 0.415999 59.6399 0.527999C59.7519 0.639999 59.8079 0.783999 59.8079 0.959999V3.12C59.8079 3.296 59.7519 3.44 59.6399 3.552C59.5279 3.664 59.3839 3.72 59.2079 3.72H56.3279ZM56.3519 18C56.1759 18 56.0319 17.944 55.9199 17.832C55.8079 17.72 55.7519 17.576 55.7519 17.4V6.12C55.7519 5.944 55.8079 5.8 55.9199 5.688C56.0319 5.576 56.1759 5.52 56.3519 5.52H59.1839C59.3599 5.52 59.5039 5.576 59.6159 5.688C59.7279 5.8 59.7839 5.944 59.7839 6.12V17.4C59.7839 17.56 59.7279 17.704 59.6159 17.832C59.5039 17.944 59.3599 18 59.1839 18H56.3519ZM68.5231 18.24C66.5391 18.24 65.0111 17.768 63.9391 16.824C62.8671 15.88 62.2831 14.552 62.1871 12.84C62.1711 12.632 62.1631 12.272 62.1631 11.76C62.1631 11.248 62.1711 10.888 62.1871 10.68C62.2831 8.984 62.8831 7.664 63.9871 6.72C65.0911 5.76 66.6031 5.28 68.5231 5.28C70.4591 5.28 71.9791 5.76 73.0831 6.72C74.1871 7.664 74.7871 8.984 74.8831 10.68C74.8991 10.888 74.9071 11.248 74.9071 11.76C74.9071 12.272 74.8991 12.632 74.8831 12.84C74.7871 14.552 74.2031 15.88 73.1311 16.824C72.0591 17.768 70.5231 18.24 68.5231 18.24ZM68.5231 15.312C69.2271 15.312 69.7471 15.104 70.0831 14.688C70.4191 14.256 70.6111 13.6 70.6591 12.72C70.6751 12.56 70.6831 12.24 70.6831 11.76C70.6831 11.28 70.6751 10.96 70.6591 10.8C70.6111 9.936 70.4111 9.288 70.0591 8.856C69.7231 8.424 69.2111 8.208 68.5231 8.208C67.1951 8.208 66.4911 9.072 66.4111 10.8L66.3871 11.76L66.4111 12.72C66.4431 13.6 66.6271 14.256 66.9631 14.688C67.3151 15.104 67.8351 15.312 68.5231 15.312ZM77.6538 18C77.4938 18 77.3498 17.944 77.2218 17.832C77.1098 17.704 77.0538 17.56 77.0538 17.4V14.352C77.0538 14.176 77.1098 14.032 77.2218 13.92C77.3498 13.808 77.4938 13.752 77.6538 13.752H80.7018C80.8778 13.752 81.0218 13.808 81.1338 13.92C81.2458 14.032 81.3018 14.176 81.3018 14.352V17.4C81.3018 17.56 81.2458 17.704 81.1338 17.832C81.0218 17.944 80.8778 18 80.7018 18H77.6538Z" fill="#ffffff"/>
</svg>
