<?xml version="1.0" encoding="iso-8859-1"?>
<!-- Generator: Adobe Illustrator 19.0.0, SVG Export Plug-In . SVG Version: 6.00 Build 0)  -->
<svg version="1.1" id="Capa_1" xmlns="http://www.w3.org/2000/svg" xmlns:xlink="http://www.w3.org/1999/xlink" x="0px" y="0px"
	 viewBox="0 0 512 512" style="enable-background:new 0 0 512 512;" xml:space="preserve">
<g>
	<g>
		<rect x="128" y="230.4" width="51.2" height="51.2"/>
	</g>
</g>
<g>
	<g>
		<rect x="230.4" y="230.4" width="51.2" height="51.2"/>
	</g>
</g>
<g>
	<g>
		<rect x="332.8" y="230.4" width="51.2" height="51.2"/>
	</g>
</g>
<g>
	<g>
		<rect x="128" y="332.8" width="51.2" height="51.2"/>
	</g>
</g>
<g>
	<g>
		<rect x="230.4" y="332.8" width="51.2" height="51.2"/>
	</g>
</g>
<g>
	<g>
		<rect x="332.8" y="332.8" width="51.2" height="51.2"/>
	</g>
</g>
<g>
	<g>
		<path d="M486.4,51.2h-51.2V25.6c0-15.36-10.24-25.6-25.6-25.6C394.24,0,384,10.24,384,25.6v25.6H128V25.6
			C128,10.24,117.76,0,102.4,0C87.04,0,76.8,10.24,76.8,25.6v25.6H25.6C10.24,51.2,0,61.44,0,76.8v409.6
			C0,501.76,10.24,512,25.6,512h460.8c12.8,0,25.6-10.24,25.6-25.6V76.8C512,61.44,499.2,51.2,486.4,51.2z M460.8,460.8H51.2V153.6
			h409.6V460.8z"/>
	</g>
</g>
<g>
</g>
<g>
</g>
<g>
</g>
<g>
</g>
<g>
</g>
<g>
</g>
<g>
</g>
<g>
</g>
<g>
</g>
<g>
</g>
<g>
</g>
<g>
</g>
<g>
</g>
<g>
</g>
<g>
</g>
</svg>
