<svg width="131" height="26" viewBox="0 0 131 26" fill="none" xmlns="http://www.w3.org/2000/svg">
<path d="M57.854 19C57.722 19 57.614 18.964 57.53 18.892C57.446 18.808 57.404 18.7 57.404 18.568V6.85C57.404 6.718 57.446 6.61 57.53 6.526C57.614 6.442 57.722 6.4 57.854 6.4H59.276C59.528 6.4 59.708 6.514 59.816 6.742L63.29 13.222L66.8 6.742C66.92 6.514 67.1 6.4 67.34 6.4H68.744C68.876 6.4 68.984 6.442 69.068 6.526C69.152 6.61 69.194 6.718 69.194 6.85V18.568C69.194 18.7 69.152 18.808 69.068 18.892C68.984 18.964 68.876 19 68.744 19H67.232C67.112 19 67.01 18.958 66.926 18.874C66.842 18.79 66.8 18.688 66.8 18.568V10.774L64.28 15.58C64.124 15.844 63.92 15.976 63.668 15.976H62.93C62.678 15.976 62.474 15.844 62.318 15.58L59.798 10.774V18.568C59.798 18.688 59.756 18.79 59.672 18.874C59.6 18.958 59.498 19 59.366 19H57.854ZM75.8098 19.18C74.4778 19.18 73.4158 18.796 72.6238 18.028C71.8438 17.248 71.4298 16.156 71.3818 14.752L71.3638 14.302L71.3818 13.852C71.4418 12.484 71.8618 11.41 72.6418 10.63C73.4338 9.85 74.4898 9.46 75.8098 9.46C77.2258 9.46 78.3178 9.892 79.0858 10.756C79.8658 11.62 80.2558 12.772 80.2558 14.212V14.59C80.2558 14.71 80.2138 14.812 80.1298 14.896C80.0458 14.98 79.9378 15.022 79.8058 15.022H73.8298V15.166C73.8538 15.826 74.0338 16.384 74.3698 16.84C74.7178 17.284 75.1918 17.506 75.7918 17.506C76.4998 17.506 77.0698 17.23 77.5018 16.678C77.6098 16.546 77.6938 16.462 77.7538 16.426C77.8258 16.39 77.9278 16.372 78.0598 16.372H79.6078C79.7158 16.372 79.8058 16.408 79.8778 16.48C79.9618 16.54 80.0038 16.618 80.0038 16.714C80.0038 17.002 79.8298 17.344 79.4818 17.74C79.1458 18.124 78.6598 18.46 78.0238 18.748C77.3878 19.036 76.6498 19.18 75.8098 19.18ZM77.8078 13.51V13.456C77.8078 12.748 77.6278 12.178 77.2678 11.746C76.9198 11.314 76.4338 11.098 75.8098 11.098C75.1858 11.098 74.6998 11.314 74.3518 11.746C74.0038 12.178 73.8298 12.748 73.8298 13.456V13.51H77.8078ZM86.3614 19C85.2694 19 84.4474 18.718 83.8954 18.154C83.3554 17.578 83.0854 16.738 83.0854 15.634V11.548H81.6634C81.5434 11.548 81.4414 11.506 81.3574 11.422C81.2734 11.326 81.2314 11.218 81.2314 11.098V10.072C81.2314 9.952 81.2734 9.85 81.3574 9.766C81.4414 9.682 81.5434 9.64 81.6634 9.64H83.0854V6.652C83.0854 6.52 83.1274 6.418 83.2114 6.346C83.2954 6.262 83.3974 6.22 83.5174 6.22H84.9754C85.1074 6.22 85.2094 6.262 85.2814 6.346C85.3654 6.418 85.4074 6.52 85.4074 6.652V9.64H87.6574C87.7894 9.64 87.8914 9.682 87.9634 9.766C88.0474 9.838 88.0894 9.94 88.0894 10.072V11.098C88.0894 11.23 88.0474 11.338 87.9634 11.422C87.8794 11.506 87.7774 11.548 87.6574 11.548H85.4074V15.454C85.4074 15.97 85.4974 16.36 85.6774 16.624C85.8574 16.888 86.1574 17.02 86.5774 17.02H87.8194C87.9394 17.02 88.0414 17.062 88.1254 17.146C88.2094 17.23 88.2514 17.332 88.2514 17.452V18.568C88.2514 18.688 88.2094 18.79 88.1254 18.874C88.0534 18.958 87.9514 19 87.8194 19H86.3614ZM90.2802 19C90.1602 19 90.0582 18.958 89.9742 18.874C89.8902 18.79 89.8482 18.688 89.8482 18.568V10.09C89.8482 9.97 89.8902 9.868 89.9742 9.784C90.0582 9.688 90.1602 9.64 90.2802 9.64H91.7382C91.8702 9.64 91.9782 9.682 92.0622 9.766C92.1462 9.85 92.1882 9.958 92.1882 10.09V10.828C92.4762 10.444 92.8362 10.15 93.2682 9.946C93.7122 9.742 94.2162 9.64 94.7802 9.64H95.5182C95.6502 9.64 95.7522 9.682 95.8242 9.766C95.9082 9.838 95.9502 9.94 95.9502 10.072V11.368C95.9502 11.488 95.9082 11.59 95.8242 11.674C95.7522 11.758 95.6502 11.8 95.5182 11.8H94.1142C93.5502 11.8 93.1062 11.962 92.7822 12.286C92.4582 12.61 92.2962 13.054 92.2962 13.618V18.568C92.2962 18.688 92.2542 18.79 92.1702 18.874C92.0862 18.958 91.9782 19 91.8462 19H90.2802ZM101.371 19.18C99.967 19.18 98.881 18.82 98.113 18.1C97.345 17.368 96.931 16.372 96.871 15.112L96.853 14.32L96.871 13.528C96.931 12.28 97.351 11.29 98.131 10.558C98.911 9.826 99.991 9.46 101.371 9.46C102.751 9.46 103.831 9.826 104.611 10.558C105.391 11.29 105.811 12.28 105.871 13.528C105.883 13.672 105.889 13.936 105.889 14.32C105.889 14.704 105.883 14.968 105.871 15.112C105.811 16.372 105.397 17.368 104.629 18.1C103.861 18.82 102.775 19.18 101.371 19.18ZM101.371 17.398C102.007 17.398 102.499 17.2 102.847 16.804C103.195 16.396 103.387 15.802 103.423 15.022C103.435 14.902 103.441 14.668 103.441 14.32C103.441 13.972 103.435 13.738 103.423 13.618C103.387 12.838 103.195 12.25 102.847 11.854C102.499 11.446 102.007 11.242 101.371 11.242C100.735 11.242 100.243 11.446 99.895 11.854C99.547 12.25 99.355 12.838 99.319 13.618L99.301 14.32L99.319 15.022C99.355 15.802 99.547 16.396 99.895 16.804C100.243 17.2 100.735 17.398 101.371 17.398ZM108.549 19C108.429 19 108.333 18.964 108.261 18.892C108.189 18.82 108.153 18.724 108.153 18.604V10.036C108.153 9.916 108.189 9.82 108.261 9.748C108.333 9.676 108.429 9.64 108.549 9.64H108.855C108.975 9.64 109.071 9.676 109.143 9.748C109.215 9.82 109.251 9.916 109.251 10.036V10.882C109.611 10.414 110.019 10.06 110.475 9.82C110.943 9.58 111.543 9.46 112.275 9.46C113.451 9.46 114.357 9.838 114.993 10.594C115.629 11.338 115.947 12.304 115.947 13.492V18.604C115.947 18.724 115.911 18.82 115.839 18.892C115.767 18.964 115.671 19 115.551 19H115.245C115.125 19 115.029 18.964 114.957 18.892C114.885 18.82 114.849 18.724 114.849 18.604V13.582C114.849 12.61 114.609 11.854 114.129 11.314C113.661 10.774 112.983 10.504 112.095 10.504C111.231 10.504 110.541 10.78 110.025 11.332C109.509 11.872 109.251 12.622 109.251 13.582V18.604C109.251 18.724 109.215 18.82 109.143 18.892C109.071 18.964 108.975 19 108.855 19H108.549ZM118.969 7.714C118.849 7.714 118.753 7.678 118.681 7.606C118.609 7.534 118.573 7.438 118.573 7.318V6.634C118.573 6.514 118.609 6.418 118.681 6.346C118.753 6.262 118.849 6.22 118.969 6.22H119.653C119.773 6.22 119.869 6.262 119.941 6.346C120.025 6.418 120.067 6.514 120.067 6.634V7.318C120.067 7.438 120.025 7.534 119.941 7.606C119.869 7.678 119.773 7.714 119.653 7.714H118.969ZM119.167 19C119.047 19 118.951 18.964 118.879 18.892C118.807 18.82 118.771 18.724 118.771 18.604V10.036C118.771 9.916 118.807 9.82 118.879 9.748C118.951 9.676 119.047 9.64 119.167 9.64H119.473C119.593 9.64 119.689 9.676 119.761 9.748C119.833 9.82 119.869 9.916 119.869 10.036V18.604C119.869 18.724 119.833 18.82 119.761 18.892C119.689 18.964 119.593 19 119.473 19H119.167ZM126.324 19.18C125.076 19.18 124.11 18.82 123.426 18.1C122.742 17.368 122.382 16.348 122.346 15.04L122.328 14.32L122.346 13.6C122.382 12.292 122.742 11.278 123.426 10.558C124.11 9.826 125.076 9.46 126.324 9.46C127.116 9.46 127.788 9.604 128.34 9.892C128.904 10.168 129.324 10.528 129.6 10.972C129.876 11.404 130.026 11.854 130.05 12.322C130.062 12.43 130.026 12.526 129.942 12.61C129.858 12.682 129.762 12.718 129.654 12.718H129.402C129.282 12.718 129.192 12.694 129.132 12.646C129.084 12.586 129.03 12.484 128.97 12.34C128.73 11.68 128.394 11.212 127.962 10.936C127.53 10.648 126.984 10.504 126.324 10.504C125.46 10.504 124.77 10.768 124.254 11.296C123.75 11.812 123.48 12.61 123.444 13.69L123.426 14.32L123.444 14.95C123.48 16.03 123.75 16.834 124.254 17.362C124.77 17.878 125.46 18.136 126.324 18.136C126.984 18.136 127.53 17.998 127.962 17.722C128.394 17.434 128.73 16.96 128.97 16.3C129.03 16.156 129.084 16.06 129.132 16.012C129.192 15.952 129.282 15.922 129.402 15.922H129.654C129.762 15.922 129.858 15.964 129.942 16.048C130.026 16.12 130.062 16.21 130.05 16.318C130.026 16.786 129.876 17.242 129.6 17.686C129.324 18.118 128.904 18.478 128.34 18.766C127.788 19.042 127.116 19.18 126.324 19.18Z" fill="white"/>
<path d="M0 6C0 2.68629 2.68629 0 6 0H48C49.1046 0 50 0.895431 50 2V20C50 23.3137 47.3137 26 44 26H2C0.895432 26 0 25.1046 0 24V6Z" fill="#0094FF"/>
<path d="M8.53 18C8.43 18 8.345 17.965 8.275 17.895C8.205 17.825 8.17 17.74 8.17 17.64V7.875C8.17 7.765 8.2 7.675 8.26 7.605C8.33 7.535 8.42 7.5 8.53 7.5H12.19C15.13 7.5 16.63 8.86 16.69 11.58C16.71 12.16 16.72 12.55 16.72 12.75C16.72 12.94 16.71 13.325 16.69 13.905C16.65 15.305 16.275 16.34 15.565 17.01C14.855 17.67 13.755 18 12.265 18H8.53ZM12.19 16.275C13.03 16.275 13.635 16.09 14.005 15.72C14.375 15.34 14.57 14.72 14.59 13.86C14.61 13.26 14.62 12.885 14.62 12.735C14.62 12.575 14.61 12.205 14.59 11.625C14.57 10.805 14.36 10.2 13.96 9.81C13.57 9.42 12.955 9.225 12.115 9.225H10.255V16.275H12.19ZM21.8969 18.15C20.7869 18.15 19.9019 17.83 19.2419 17.19C18.5919 16.54 18.2469 15.63 18.2069 14.46L18.1919 14.085L18.2069 13.71C18.2569 12.57 18.6069 11.675 19.2569 11.025C19.9169 10.375 20.7969 10.05 21.8969 10.05C23.0769 10.05 23.9869 10.41 24.6269 11.13C25.2769 11.85 25.6019 12.81 25.6019 14.01V14.325C25.6019 14.425 25.5669 14.51 25.4969 14.58C25.4269 14.65 25.3369 14.685 25.2269 14.685H20.2469V14.805C20.2669 15.355 20.4169 15.82 20.6969 16.2C20.9869 16.57 21.3819 16.755 21.8819 16.755C22.4719 16.755 22.9469 16.525 23.3069 16.065C23.3969 15.955 23.4669 15.885 23.5169 15.855C23.5769 15.825 23.6619 15.81 23.7719 15.81H25.0619C25.1519 15.81 25.2269 15.84 25.2869 15.9C25.3569 15.95 25.3919 16.015 25.3919 16.095C25.3919 16.335 25.2469 16.62 24.9569 16.95C24.6769 17.27 24.2719 17.55 23.7419 17.79C23.2119 18.03 22.5969 18.15 21.8969 18.15ZM23.5619 13.425V13.38C23.5619 12.79 23.4119 12.315 23.1119 11.955C22.8219 11.595 22.4169 11.415 21.8969 11.415C21.3769 11.415 20.9719 11.595 20.6819 11.955C20.3919 12.315 20.2469 12.79 20.2469 13.38V13.425H23.5619ZM29.6758 18C29.5258 18 29.4108 17.97 29.3308 17.91C29.2508 17.84 29.1858 17.745 29.1358 17.625L26.3308 10.665L26.3008 10.53C26.3008 10.44 26.3308 10.365 26.3908 10.305C26.4608 10.235 26.5408 10.2 26.6308 10.2H27.8458C28.0358 10.2 28.1658 10.295 28.2358 10.485L30.2308 15.75L32.2258 10.485C32.2558 10.415 32.3008 10.35 32.3608 10.29C32.4308 10.23 32.5158 10.2 32.6158 10.2H33.8458C33.9258 10.2 33.9958 10.235 34.0558 10.305C34.1258 10.365 34.1608 10.44 34.1608 10.53C34.1608 10.59 34.1558 10.635 34.1458 10.665L31.3258 17.625C31.2758 17.745 31.2108 17.84 31.1308 17.91C31.0508 17.97 30.9358 18 30.7858 18H29.6758ZM38.235 18.15C37.485 18.15 36.855 18.04 36.345 17.82C35.835 17.59 35.455 17.325 35.205 17.025C34.965 16.715 34.845 16.45 34.845 16.23C34.845 16.13 34.88 16.05 34.95 15.99C35.02 15.93 35.1 15.9 35.19 15.9H36.375C36.465 15.9 36.54 15.935 36.6 16.005C36.64 16.035 36.745 16.125 36.915 16.275C37.085 16.435 37.285 16.56 37.515 16.65C37.745 16.74 38 16.785 38.28 16.785C38.68 16.785 39.01 16.705 39.27 16.545C39.53 16.385 39.66 16.165 39.66 15.885C39.66 15.675 39.6 15.505 39.48 15.375C39.37 15.245 39.165 15.13 38.865 15.03C38.565 14.92 38.12 14.805 37.53 14.685C36.68 14.505 36.05 14.23 35.64 13.86C35.24 13.49 35.04 13 35.04 12.39C35.04 11.99 35.16 11.615 35.4 11.265C35.64 10.905 35.995 10.615 36.465 10.395C36.945 10.165 37.515 10.05 38.175 10.05C38.845 10.05 39.425 10.16 39.915 10.38C40.405 10.59 40.775 10.845 41.025 11.145C41.285 11.435 41.415 11.695 41.415 11.925C41.415 12.015 41.38 12.095 41.31 12.165C41.25 12.225 41.175 12.255 41.085 12.255H39.975C39.895 12.255 39.81 12.22 39.72 12.15C39.65 12.1 39.54 12.005 39.39 11.865C39.24 11.725 39.065 11.615 38.865 11.535C38.665 11.455 38.43 11.415 38.16 11.415C37.79 11.415 37.5 11.495 37.29 11.655C37.09 11.815 36.99 12.025 36.99 12.285C36.99 12.475 37.04 12.63 37.14 12.75C37.24 12.87 37.435 12.985 37.725 13.095C38.015 13.205 38.45 13.315 39.03 13.425C39.99 13.615 40.675 13.91 41.085 14.31C41.505 14.71 41.715 15.2 41.715 15.78C41.715 16.48 41.41 17.05 40.8 17.49C40.19 17.93 39.335 18.15 38.235 18.15Z" fill="white"/>
</svg>
