<svg width="24" height="24" viewBox="0 0 24 24" fill="none" xmlns="http://www.w3.org/2000/svg">
<path opacity="0.3" d="M19 22H5C4.4 22 4 21.6 4 21V3C4 2.4 4.4 2 5 2H14L20 8V21C20 21.6 19.6 22 19 22ZM11.7 17.7L16.7 12.7C17.1 12.3 17.1 11.7 16.7 11.3C16.3 10.9 15.7 10.9 15.3 11.3L11 15.6L8.70001 13.3C8.30001 12.9 7.69999 12.9 7.29999 13.3C6.89999 13.7 6.89999 14.3 7.29999 14.7L10.3 17.7C10.5 17.9 10.8 18 11 18C11.2 18 11.5 17.9 11.7 17.7Z" fill="black"/>
<path d="M15 8H20L14 2V7C14 7.6 14.4 8 15 8Z" fill="black"/>
</svg>
