<svg width="24" height="24" viewBox="0 0 24 24" fill="none" xmlns="http://www.w3.org/2000/svg">
<path opacity="0.3" d="M19 22H5C4.4 22 4 21.6 4 21V3C4 2.4 4.4 2 5 2H14L20 8V21C20 21.6 19.6 22 19 22ZM13.4 14L15.5 11.9C15.9 11.5 15.9 10.9 15.5 10.5C15.1 10.1 14.5 10.1 14.1 10.5L12 12.6L9.89999 10.5C9.49999 10.1 8.9 10.1 8.5 10.5C8.1 10.9 8.1 11.5 8.5 11.9L10.6 14L8.5 16.1C8.1 16.5 8.1 17.1 8.5 17.5C8.7 17.7 9.00001 17.8 9.20001 17.8C9.40001 17.8 9.69999 17.7 9.89999 17.5L12 15.4L14.1 17.5C14.3 17.7 14.6 17.8 14.8 17.8C15 17.8 15.3 17.7 15.5 17.5C15.9 17.1 15.9 16.5 15.5 16.1L13.4 14Z" fill="black"/>
<path d="M15 8H20L14 2V7C14 7.6 14.4 8 15 8Z" fill="black"/>
</svg>
